<?xml version="1.0" encoding="UTF-8"?>
<svg version="1.1" xmlns="http://www.w3.org/2000/svg" width="680" height="762">
<path d="M0 0 C3.97763626 1.97358981 7.13949699 4.7508265 10.48828125 7.640625 C12.01710509 8.93102045 13.54706774 10.2200678 15.078125 11.5078125 C16.21483643 12.4683252 16.21483643 12.4683252 17.37451172 13.44824219 C20.37979127 15.9579237 23.45537758 18.36868762 26.55078125 20.765625 C32.53921415 25.42377587 38.39177386 30.23499813 44.234375 35.07421875 C48.62499597 38.70263427 53.05593832 42.26732924 57.55078125 45.765625 C62.7919251 49.84476005 67.93594634 54.02928572 73.05078125 58.265625 C78.18823505 62.51990823 83.35338386 66.72603821 88.61328125 70.828125 C97.04285227 77.40217566 105.31079233 84.17212208 113.59179688 90.93164062 C120.53611347 96.59761706 127.48857378 102.24689373 134.55078125 107.765625 C142.99682034 114.36574547 151.28829683 121.15375973 159.59179688 127.93164062 C167.21546585 134.15191128 174.86673949 140.32717694 182.61816406 146.38769531 C186.98913485 149.81008306 191.29799285 153.30206185 195.5859375 156.828125 C204.1751495 163.88961155 212.78855807 170.91947153 221.55078125 177.765625 C229.99687327 184.36567526 238.28829883 191.15376136 246.59179688 197.93164062 C254.21546585 204.15191128 261.86673949 210.32717694 269.61816406 216.38769531 C273.98913485 219.81008306 278.29799285 223.30206185 282.5859375 226.828125 C291.1751495 233.88961155 299.78855807 240.91947153 308.55078125 247.765625 C315.40382662 253.12081694 322.26377146 258.49730714 328.86889267 264.15725994 C331.01953606 265.84798692 333.11956009 267.27339001 335.426548 268.72345448 C347.34509271 276.63489924 347.34509271 276.63489924 349.04305267 283.90440941 C349.80047801 289.45858954 349.67134152 295.00299876 349.55761719 300.59448242 C349.57277405 302.72798855 349.59479423 304.86145518 349.62310791 306.99482727 C349.67869072 312.7565688 349.63444337 318.51350133 349.56826305 324.27497268 C349.51262214 330.31878999 349.53872723 336.36234488 349.55279541 342.40632629 C349.56358335 352.55055776 349.50987854 362.69289042 349.41699219 372.83666992 C349.3104728 384.55005187 349.30359559 396.26026521 349.35054564 407.97396582 C349.39371591 419.26551327 349.36887014 430.55591896 349.31232452 441.84737587 C349.28934291 446.64284704 349.28956827 451.43747864 349.30858612 456.23296165 C349.32773008 461.88229389 349.28701776 467.5281721 349.20076752 473.17684746 C349.17858223 475.24467567 349.17655727 477.31283742 349.19657898 479.38068771 C349.33552092 495.79308722 349.33552092 495.79308722 344.89591217 500.67862892 C342.0344093 503.29007348 338.88361997 505.29433764 335.55078125 507.265625 C334.36045221 508.17093655 333.18193771 509.09250307 332.02734375 510.04296875 C331.08632813 510.75582031 330.1453125 511.46867187 329.17578125 512.203125 C328.07763081 513.03971628 326.97999232 513.87697991 325.8828125 514.71484375 C325.33318848 515.13427246 324.78356445 515.55370117 324.21728516 515.98583984 C321.41392567 518.1386688 318.638936 520.32726544 315.86328125 522.515625 C310.44217039 526.7868728 305.00131915 531.03199678 299.55078125 535.265625 C294.20587302 539.41772872 288.86839935 543.57862196 283.55078125 547.765625 C278.23316262 551.95262845 272.89562914 556.11344302 267.55078125 560.265625 C259.86281411 566.23877084 252.19956847 572.24242898 244.55078125 578.265625 C236.13309085 584.89430977 227.69317487 591.49323872 219.23242188 598.06689453 C212.31841909 603.44101392 205.43065558 608.84792536 198.55078125 614.265625 C190.13309085 620.89430977 181.69317487 627.49323872 173.23242188 634.06689453 C166.31841909 639.44101392 159.43065558 644.84792536 152.55078125 650.265625 C144.13021539 656.89657411 135.68769499 663.4981212 127.22363281 670.07348633 C122.6552711 673.62401394 118.09661712 677.18631031 113.55078125 680.765625 C108.23316262 684.95262845 102.89562914 689.11344302 97.55078125 693.265625 C89.86281411 699.23877084 82.19956847 705.24242898 74.55078125 711.265625 C66.13309085 717.89430977 57.69317487 724.49323872 49.23242188 731.06689453 C42.89613528 735.9919664 36.58121582 740.94360325 30.27587891 745.90820312 C28.43494219 747.3567749 26.59263312 748.8035868 24.75 750.25 C24.12061523 750.74411377 23.49123047 751.23822754 22.84277344 751.74731445 C21.64691388 752.68608625 20.4509576 753.62473486 19.25488281 754.56323242 C16.74947477 756.53075835 14.30867757 758.48800983 11.9609375 760.64453125 C9.55078125 762.265625 9.55078125 762.265625 7.20703125 762.38671875 C3.24749482 760.71556146 0.30039173 758.10313467 -2.94921875 755.328125 C-4.38296587 754.13273547 -5.81787622 752.93873983 -7.25390625 751.74609375 C-7.96385742 751.1536084 -8.67380859 750.56112305 -9.40527344 749.95068359 C-12.24451206 747.60997349 -15.14853759 745.372625 -18.07421875 743.140625 C-26.77292343 736.49875689 -35.37809898 729.74179749 -43.90649414 722.88256836 C-49.8379951 718.11254567 -55.82338191 713.42961058 -61.88671875 708.828125 C-68.17383658 704.05564072 -74.32763846 699.14734326 -80.42944336 694.14086914 C-85.19434561 690.246461 -90.0446538 686.48216926 -94.94921875 682.765625 C-101.281389 677.96569967 -107.48716736 673.03626522 -113.63623047 668.00439453 C-119.60445467 663.12318171 -125.65499471 658.35378399 -131.73144531 653.60839844 C-134.64193503 651.33328567 -137.54516371 649.0489413 -140.44921875 646.765625 C-141.61585154 645.84891522 -142.78251819 644.93224852 -143.94921875 644.015625 C-150.94921875 638.515625 -157.94921875 633.015625 -164.94921875 627.515625 C-165.52663818 627.06195557 -166.10405762 626.60828613 -166.69897461 626.14086914 C-167.86652285 625.22347491 -169.03400324 624.30599433 -170.20141602 623.38842773 C-173.10404665 621.10718255 -176.00781149 618.82741286 -178.9140625 616.55078125 C-185.58689936 611.32071993 -192.22676111 606.052122 -198.84130859 600.74853516 C-204.76816515 596.00060267 -210.73715467 591.30755785 -216.71533203 586.62451172 C-219.62888702 584.34109197 -222.53886068 582.05311697 -225.44921875 579.765625 C-226.61586848 578.84893677 -227.78253514 577.9322701 -228.94921875 577.015625 C-235.94921875 571.515625 -242.94921875 566.015625 -249.94921875 560.515625 C-250.52663818 560.06195557 -251.10405762 559.60828613 -251.69897461 559.14086914 C-252.86652285 558.22347491 -254.03400324 557.30599433 -255.20141602 556.38842773 C-258.10404665 554.10718255 -261.00781149 551.82741286 -263.9140625 549.55078125 C-270.58689936 544.32071993 -277.22676111 539.052122 -283.84130859 533.74853516 C-289.76816515 529.00060267 -295.73715467 524.30755785 -301.71533203 519.62451172 C-305.20341939 516.89081779 -308.68669797 514.15099833 -312.17089844 511.41235352 C-315.24777797 508.99424624 -318.32604425 506.57793188 -321.40625 504.1640625 C-322.05142578 503.65810547 -322.69660156 503.15214844 -323.36132812 502.63085938 C-324.60569688 501.65505941 -325.85047318 500.67977888 -327.09570312 499.70507812 C-331.33675655 496.3780872 -331.33675655 496.3780872 -332.44921875 495.265625 C-332.57152351 492.50697093 -332.62824175 489.77251129 -332.64349365 487.01246643 C-332.65641713 485.69869732 -332.65641713 485.69869732 -332.66960168 484.35838741 C-332.69718124 481.39983453 -332.71732036 478.44127932 -332.73730469 475.48266602 C-332.75501664 473.37068954 -332.77301856 471.25871548 -332.79129028 469.14674377 C-332.95053786 449.83587794 -333.03468159 430.52428986 -333.10128403 411.21290684 C-333.15151553 396.93443059 -333.23741653 382.65710369 -333.36990523 368.37914902 C-333.45988134 358.3451087 -333.50772818 348.3113838 -333.52486253 338.27695793 C-333.53633024 332.28222795 -333.56667156 326.28896621 -333.64281464 320.29467964 C-333.71374843 314.64955688 -333.73246894 309.00662727 -333.71169662 303.36112022 C-333.71312256 301.29308007 -333.73329245 299.22495169 -333.77393723 297.15731049 C-334.07976077 280.75226649 -334.07976077 280.75226649 -330.10218048 275.90824699 C-327.34080311 273.35784777 -324.59283884 271.31544698 -321.44921875 269.265625 C-319.66443128 267.82440313 -317.8915389 266.36818822 -316.13671875 264.890625 C-314.78126953 263.79621094 -314.78126953 263.79621094 -313.3984375 262.6796875 C-310.03553405 259.92700627 -306.73992306 257.10380731 -303.44921875 254.265625 C-299.32470169 250.71090955 -295.1771337 247.19769714 -290.94921875 243.765625 C-285.54558973 239.37616682 -280.2688342 234.84879691 -274.9921875 230.30859375 C-270.04363159 226.05210575 -265.05443335 221.84395494 -260.06689453 217.63330078 C-258.42012896 216.24103083 -256.77611808 214.84557027 -255.1328125 213.44921875 C-250.14895627 209.21708867 -245.15362603 205.00825102 -240.07421875 200.890625 C-234.95188351 196.72406077 -229.97504497 192.40361219 -224.9987793 188.06518555 C-220.48981918 184.1431296 -215.90223811 180.33530635 -211.2578125 176.57421875 C-207.94623509 173.85218503 -204.69605759 171.06426176 -201.44921875 168.265625 C-197.34686722 164.72957274 -193.22120198 161.23699329 -189.01171875 157.828125 C-184.57682558 154.22926471 -180.25354089 150.51830436 -175.94921875 146.765625 C-170.7906638 142.26819149 -165.56764989 137.87567216 -160.25 133.56640625 C-156.98592092 130.88503584 -153.77671155 128.14499637 -150.57421875 125.390625 C-149.98463379 124.88354004 -149.39504883 124.37645508 -148.78759766 123.85400391 C-148.19769043 123.34659668 -147.6077832 122.83918945 -147 122.31640625 C-139.73890872 116.07135179 -132.44368446 109.8693135 -125.01171875 103.828125 C-119.59064919 99.4141627 -114.29079901 94.86779695 -108.9921875 90.30859375 C-104.04363159 86.05210575 -99.05443335 81.84395494 -94.06689453 77.63330078 C-92.42012896 76.24103083 -90.77611808 74.84557027 -89.1328125 73.44921875 C-84.12687223 69.19822441 -79.10881495 64.96998208 -74.01171875 60.828125 C-68.59064919 56.4141627 -63.29079901 51.86779695 -57.9921875 47.30859375 C-53.04363159 43.05210575 -48.05443335 38.84395494 -43.06689453 34.63330078 C-41.42012896 33.24103083 -39.77611808 31.84557027 -38.1328125 30.44921875 C-32.28127389 25.48028075 -26.39576116 20.56739741 -20.41796875 15.75 C-18.09265954 13.80408335 -15.84374903 11.82384566 -13.60546875 9.78125 C-12.60459229 8.87898682 -12.60459229 8.87898682 -11.58349609 7.95849609 C-10.26505648 6.76565267 -8.95759312 5.56054014 -7.66259766 4.34228516 C-3.22501448 0.34976234 -3.22501448 0.34976234 0 0 Z " fill="#FEFEFE" transform="translate(332.44921875,-0.265625)"/>
<path d="M0 0 C0.28044461 28.12027694 0.49199208 56.24034402 0.62174606 84.3617382 C0.68359749 97.41936899 0.76790618 110.4761304 0.90527344 123.53320312 C1.02496009 134.91512928 1.10231709 146.29642581 1.12906194 157.67896378 C1.14469402 163.70516357 1.18137028 169.7295623 1.26876068 175.75518417 C1.35040457 181.43072795 1.37530308 187.1037347 1.35729218 192.77980995 C1.36058532 194.85917404 1.38435027 196.93862559 1.4304657 199.01748085 C1.77880429 215.53484382 1.77880429 215.53484382 -2.63921356 220.42012405 C-5.50229999 223.03672714 -8.65862494 225.03430726 -12 227 C-13.19067944 227.90485065 -14.36930347 228.82631963 -15.5234375 229.77734375 C-16.46445312 230.49019531 -17.40546875 231.20304688 -18.375 231.9375 C-19.47315044 232.77409128 -20.57078893 233.61135491 -21.66796875 234.44921875 C-22.49240479 235.07836182 -22.49240479 235.07836182 -23.33349609 235.72021484 C-26.13685558 237.8730438 -28.91184525 240.06164044 -31.6875 242.25 C-37.10861086 246.5212478 -42.5494621 250.76637178 -48 255 C-53.34490823 259.15210372 -58.6823819 263.31299696 -64 267.5 C-69.31761863 271.68700345 -74.65515211 275.84781802 -80 280 C-87.68796714 285.97314584 -95.35121278 291.97680398 -103 298 C-111.4176904 304.62868477 -119.85760638 311.22761372 -128.31835938 317.80126953 C-135.23236216 323.17538892 -142.12012567 328.58230036 -149 334 C-157.4176904 340.62868477 -165.85760638 347.22761372 -174.31835938 353.80126953 C-181.23236216 359.17538892 -188.12012567 364.58230036 -195 370 C-203.42056586 376.63094911 -211.86308626 383.2324962 -220.32714844 389.80786133 C-224.89551015 393.35838894 -229.45416413 396.92068531 -234 400.5 C-239.31761863 404.68700345 -244.65515211 408.84781802 -250 413 C-257.68796714 418.97314584 -265.35121278 424.97680398 -273 431 C-281.4176904 437.62868477 -289.85760638 444.22761372 -298.31835938 450.80126953 C-304.65464597 455.7263414 -310.96956543 460.67797825 -317.27490234 465.64257812 C-319.11583906 467.0911499 -320.95814813 468.5379618 -322.80078125 469.984375 C-323.43016602 470.47848877 -324.05955078 470.97260254 -324.70800781 471.48168945 C-325.90386737 472.42046125 -327.09982365 473.35910986 -328.29589844 474.29760742 C-330.81547307 476.27625854 -333.3168521 478.26426624 -335.77734375 480.31640625 C-338 482 -338 482 -340 482 C-340.18684676 454.21889571 -340.3279385 426.43788553 -340.41449738 398.65627956 C-340.45575575 385.75688618 -340.51200965 372.8578831 -340.60351562 359.95874023 C-340.68323046 348.71638148 -340.73486047 337.47430538 -340.75270796 326.23167187 C-340.76314153 320.27810464 -340.78767643 314.32534604 -340.84584045 308.37203789 C-340.90014576 302.76827834 -340.91689167 297.16566037 -340.90486145 291.56166267 C-340.90706218 289.50530416 -340.92297449 287.44890746 -340.9536438 285.39277649 C-341.17412197 269.8489039 -341.17412197 269.8489039 -338.27577209 265.28483772 C-336.25495271 263.48267465 -334.38629839 262.25612097 -332 261 C-330.86569709 260.12060197 -329.74509776 259.22279091 -328.6484375 258.296875 C-327.55906697 257.44563982 -326.46788024 256.59672443 -325.375 255.75 C-324.15359799 254.79693631 -322.93224523 253.8438095 -321.7109375 252.890625 C-320.78812988 252.17229492 -320.78812988 252.17229492 -319.84667969 251.43945312 C-316.89069697 249.13531853 -313.94575584 246.81718438 -311 244.5 C-309.83338986 243.5832614 -308.6667231 242.66659484 -307.5 241.75 C-306.9225 241.29625 -306.345 240.8425 -305.75 240.375 C-286.5 225.25 -286.5 225.25 -284.75024414 223.87524414 C-283.5826959 222.95784991 -282.41521551 222.04036933 -281.24780273 221.12280273 C-278.3451721 218.84155755 -275.44140726 216.56178786 -272.53515625 214.28515625 C-267.18304902 210.08999658 -261.84357675 205.8817142 -256.54492188 201.61914062 C-250.61328291 196.84763294 -244.62655981 192.16472522 -238.5625 187.5625 C-232.2117051 182.73987865 -225.9844471 177.78887441 -219.81323242 172.73901367 C-213.84498534 167.85764766 -207.79431372 163.08822903 -201.71777344 158.34277344 C-198.80728372 156.06766067 -195.90405504 153.7833163 -193 151.5 C-191.83336721 150.58329022 -190.66670056 149.66662352 -189.5 148.75 C-188.9225 148.29625 -188.345 147.8425 -187.75 147.375 C-168.5 132.25 -168.5 132.25 -166.75024414 130.87524414 C-165.5826959 129.95784991 -164.41521551 129.04036933 -163.24780273 128.12280273 C-160.3451721 125.84155755 -157.44140726 123.56178786 -154.53515625 121.28515625 C-149.18304902 117.08999658 -143.84357675 112.8817142 -138.54492188 108.61914062 C-132.61328649 103.84763582 -126.62665005 99.16460272 -120.5625 94.5625 C-114.27538217 89.79001572 -108.12158029 84.88171826 -102.01977539 79.87524414 C-97.25487314 75.980836 -92.40456495 72.21654426 -87.5 68.5 C-81.16782975 63.70007467 -74.96205139 58.77064022 -68.81298828 53.73876953 C-62.84476408 48.85755671 -56.79422404 44.08815899 -50.71777344 39.34277344 C-47.80728372 37.06766067 -44.90405504 34.7833163 -42 32.5 C-40.83336721 31.58329022 -39.66670056 30.66662352 -38.5 29.75 C-37.9225 29.29625 -37.345 28.8425 -36.75 28.375 C-31.5 24.25 -31.5 24.25 -29.74804688 22.87353516 C-28.58780015 21.96186643 -27.42764309 21.05008359 -26.26757812 20.13818359 C-23.25343215 17.76907842 -20.23749783 15.40230195 -17.21875 13.0390625 C-16.59613281 12.55115234 -15.97351563 12.06324219 -15.33203125 11.56054688 C-14.15292849 10.63662307 -12.97328392 9.71339007 -11.79296875 8.79101562 C-9.0393354 6.63214079 -6.32638201 4.44135289 -3.65625 2.1796875 C-1 0 -1 0 0 0 Z " fill="#E040FB" transform="translate(680,280)"/>
<path d="M0 0 C1.26379017 0.94534378 2.52723076 1.89115492 3.79052734 2.8371582 C4.49414398 3.36380569 5.19776062 3.89045319 5.92269897 4.43305969 C8.8550701 6.64499261 11.74305667 8.91049289 14.625 11.1875 C15.84633499 12.14976393 17.06768972 13.1120028 18.2890625 14.07421875 C18.90426758 14.55938965 19.51947266 15.04456055 20.15332031 15.54443359 C23.0993917 17.86654856 26.04988321 20.18302844 29 22.5 C30.16797431 23.41796168 31.33594305 24.33593044 32.50390625 25.25390625 C34.82280124 27.07603378 37.14322515 28.89618794 39.46484375 30.71484375 C44.81695098 34.91000342 50.15642325 39.1182858 55.45507812 43.38085938 C61.38671709 48.15236706 67.37344019 52.83527478 73.4375 57.4375 C79.7882949 62.26012135 86.0155529 67.21112559 92.18676758 72.26098633 C98.15501466 77.14235234 104.20568628 81.91177097 110.28222656 86.65722656 C113.19271628 88.93233933 116.09594496 91.2166837 119 93.5 C120.16663279 94.41670978 121.33329944 95.33337648 122.5 96.25 C129.5 101.75 136.5 107.25 143.5 112.75 C144.07741943 113.20366943 144.65483887 113.65733887 145.24975586 114.12475586 C146.4173041 115.04215009 147.58478449 115.95963067 148.75219727 116.87719727 C151.6548279 119.15844245 154.55859274 121.43821214 157.46484375 123.71484375 C162.81695098 127.91000342 168.15642325 132.1182858 173.45507812 136.38085938 C179.38671709 141.15236706 185.37344019 145.83527478 191.4375 150.4375 C197.7882949 155.26012135 204.0155529 160.21112559 210.18676758 165.26098633 C216.15501466 170.14235234 222.20568628 174.91177097 228.28222656 179.65722656 C231.19271628 181.93233933 234.09594496 184.2166837 237 186.5 C238.16663279 187.41670978 239.33329944 188.33337648 240.5 189.25 C247.5 194.75 254.5 200.25 261.5 205.75 C262.07741943 206.20366943 262.65483887 206.65733887 263.24975586 207.12475586 C264.4173041 208.04215009 265.58478449 208.95963067 266.75219727 209.87719727 C269.6548279 212.15844245 272.55859274 214.43821214 275.46484375 216.71484375 C280.81695098 220.91000342 286.15642325 225.1182858 291.45507812 229.38085938 C297.38671828 234.15236801 303.37346303 238.83524274 309.4375 243.4375 C317.77808967 249.77176226 325.92913711 256.32615831 334 263 C335.01389612 263.67710116 336.02779224 264.35420233 337.07241249 265.05182171 C339.6384149 267.21183067 340.44251712 268.6142744 340.73828697 271.95735645 C340.76341944 273.54656212 340.75547381 275.13649833 340.7215271 276.72554016 C340.72665365 277.60369249 340.7317802 278.48184482 340.7370621 279.38660783 C340.74694549 282.32920521 340.71394684 285.26974999 340.68115234 288.2121582 C340.67945993 290.32124279 340.68040984 292.43033092 340.68380737 294.53941345 C340.68553068 300.26651651 340.65022559 305.9928674 340.60836363 311.71979547 C340.57088592 317.70420547 340.56733358 323.68863223 340.56021118 329.67314148 C340.54155371 341.00625102 340.49230414 352.33901379 340.43211424 363.67197055 C340.36507744 376.57384765 340.33206716 389.47574121 340.30194163 402.37774909 C340.23920617 428.91869174 340.13365329 455.45932645 340 482 C336.13254682 480.16407825 332.95019506 477.73004537 329.625 475.0625 C328.3672621 474.06370814 327.10944747 473.06501289 325.8515625 472.06640625 C325.2112207 471.55609863 324.57087891 471.04579102 323.91113281 470.52001953 C320.95161184 468.16616445 317.97546979 465.83363586 315 463.5 C313.8319579 462.58212458 312.66398934 461.66415558 311.49609375 460.74609375 C309.17719876 458.92396622 306.85677485 457.10381206 304.53515625 455.28515625 C299.18304902 451.08999658 293.84357675 446.8817142 288.54492188 442.61914062 C282.61328649 437.84763582 276.62665005 433.16460272 270.5625 428.5625 C264.27538217 423.79001572 258.12158029 418.88171826 252.01977539 413.87524414 C247.25487314 409.980836 242.40456495 406.21654426 237.5 402.5 C231.16782975 397.70007467 224.96205139 392.77064022 218.81298828 387.73876953 C212.84476408 382.85755671 206.79422404 378.08815899 200.71777344 373.34277344 C197.80728372 371.06766067 194.90405504 368.7833163 192 366.5 C190.83336721 365.58329022 189.66670056 364.66662352 188.5 363.75 C181.5 358.25 174.5 352.75 167.5 347.25 C166.92258057 346.79633057 166.34516113 346.34266113 165.75024414 345.87524414 C164.5826959 344.95784991 163.41521551 344.04036933 162.24780273 343.12280273 C159.3451721 340.84155755 156.44140726 338.56178786 153.53515625 336.28515625 C146.86231939 331.05509493 140.22245764 325.786497 133.60791016 320.48291016 C127.6810536 315.73497767 121.71206408 311.04193285 115.73388672 306.35888672 C112.82033173 304.07546697 109.91035807 301.78749197 107 299.5 C105.83335027 298.58331177 104.66668361 297.6666451 103.5 296.75 C96.5 291.25 89.5 285.75 82.5 280.25 C81.92258057 279.79633057 81.34516113 279.34266113 80.75024414 278.87524414 C79.5826959 277.95784991 78.41521551 277.04036933 77.24780273 276.12280273 C74.3451721 273.84155755 71.44140726 271.56178786 68.53515625 269.28515625 C61.86231939 264.05509493 55.22245764 258.786497 48.60791016 253.48291016 C42.6810536 248.73497767 36.71206408 244.04193285 30.73388672 239.35888672 C27.24579936 236.62519279 23.76252078 233.88537333 20.27832031 231.14672852 C17.20144078 228.72862124 14.1231745 226.31230688 11.04296875 223.8984375 C10.07520508 223.13950195 10.07520508 223.13950195 9.08789062 222.36523438 C7.84352187 221.38943441 6.59874557 220.41415388 5.35351562 219.43945312 C1.1124622 216.1124622 1.1124622 216.1124622 0 215 C-0.09788593 212.23099828 -0.12993123 209.48694335 -0.12025452 206.71751404 C-0.12110894 205.83869586 -0.12196337 204.95987767 -0.12284368 204.05442864 C-0.12450119 201.08631436 -0.11897271 198.11825562 -0.11352539 195.15014648 C-0.11324355 193.03179933 -0.11340119 190.91345208 -0.1139679 188.79510498 C-0.114256 183.02467859 -0.10835725 177.25427278 -0.10139394 171.48385119 C-0.09516248 165.46067581 -0.09455677 159.43750001 -0.09336853 153.4143219 C-0.0902546 141.99978436 -0.08204038 130.58525635 -0.07201904 119.17072302 C-0.06085982 106.1794126 -0.05534794 93.18810173 -0.05032361 80.19678771 C-0.03985782 53.46451985 -0.02225718 26.73226046 0 0 Z " fill="#3EC4FF" transform="translate(0,280)"/>
<path d="M0 0 C6.59022444 0.28141697 13.18019485 0.56826057 19.77001953 0.85888672 C22.85566951 0.99369441 25.9414846 1.12399143 29.02734375 1.25390625 C30.89323908 1.33571159 32.75912495 1.41773331 34.625 1.5 C35.92860474 1.55305298 35.92860474 1.55305298 37.25854492 1.60717773 C38.07299072 1.64399658 38.88743652 1.68081543 39.7265625 1.71875 C40.43377441 1.74904297 41.14098633 1.77933594 41.86962891 1.81054688 C44 2 44 2 46.34472656 2.47924805 C49.48173966 3.09447873 52.57103325 3.35772332 55.7578125 3.61328125 C57.10486262 3.7251277 58.45186603 3.83753786 59.79882812 3.95043945 C60.85565796 4.0382518 60.85565796 4.0382518 61.93383789 4.12783813 C77.73347223 5.45936442 93.3575764 7.37590363 109 10 C109.65222534 10.10805969 110.30445068 10.21611938 110.97644043 10.32745361 C180.21176264 21.80095854 180.21176264 21.80095854 204 43 C205.01320313 43.88945312 205.01320313 43.88945312 206.046875 44.796875 C221.77160876 59.5152258 234.0392068 82.38972695 235.16113281 104.12109375 C235.20705007 107.74748917 235.23527244 111.37333831 235.25 115 C235.2809375 116.85818359 235.2809375 116.85818359 235.3125 118.75390625 C235.40797742 141.64461865 226.88128776 162.73293465 212 180 C211.20529297 181.01126953 211.20529297 181.01126953 210.39453125 182.04296875 C196.64510376 199.0515198 174.23390366 209.4371988 153 213 C137.5893438 213.88919425 121.64478288 214.38436927 107 209 C105.93394531 208.61457031 104.86789062 208.22914063 103.76953125 207.83203125 C100.78177169 206.66192009 97.89496972 205.38261159 95 204 C94.10023438 203.57074219 93.20046875 203.14148438 92.2734375 202.69921875 C52.5833788 182.39666711 37.73889022 134.09731357 24.80175781 94.32920837 C19.63983642 78.28422859 14.79463675 62.12883955 10.5625 45.8125 C10.13948533 44.19006181 9.7163032 42.56766728 9.29296875 40.9453125 C9.08075684 40.13094727 8.86854492 39.31658203 8.64990234 38.47753906 C8.00024686 36.00094107 7.33972898 33.52748914 6.67578125 31.0546875 C0 6.12862266 0 6.12862266 0 0 Z " fill="#000000" transform="translate(215,183)"/>
</svg>
