<svg width="100%" height="100%" viewBox="0 0 56 56" fill="none" xmlns="http://www.w3.org/2000/svg">
	<g clip-path="url(#clip0_111_6)">
		<path d="M27.7227 10.3764C25.1351 12.1963 22.2024 14.259 20.631 17.6716C17.9017 23.6255 26.216 30.1198 26.5713 30.3934C26.6539 30.4569 26.7528 30.4887 26.8513 30.4887C26.956 30.4887 27.0608 30.4529 27.1459 30.3816C27.3109 30.2435 27.3577 30.009 27.2586 29.8181C27.2285 29.7601 24.2441 23.9632 24.355 19.8045C24.3943 18.3561 26.4214 16.7129 28.5673 14.9733C30.5328 13.3799 32.7608 11.574 34.0643 9.46145C36.926 4.81125 33.7454 0.238696 33.7129 0.192977C33.5865 0.0155704 33.3534 -0.048633 33.154 0.038758C32.9548 0.126696 32.8444 0.342056 32.8899 0.55501C32.8964 0.585307 33.5149 3.6091 31.7938 6.72444C31.0848 8.01179 29.5269 9.10751 27.7227 10.3764Z" fill="#DB380E" />
		<path d="M38.6245 12.4269C38.807 12.2894 38.8606 12.0386 38.7502 11.8385C38.6397 11.6383 38.399 11.55 38.1853 11.6312C37.7457 11.7983 27.421 15.7782 27.421 20.5869C27.421 23.9017 28.837 25.6528 29.8709 26.9316C30.2765 27.4332 30.6266 27.8663 30.742 28.2361C31.0668 29.3018 30.2973 31.2279 29.9736 31.8802C29.8803 32.0677 29.926 32.2949 30.0848 32.4319C30.1705 32.5059 30.2776 32.5436 30.3848 32.5436C30.476 32.5436 30.5676 32.5164 30.6468 32.4613C30.8243 32.3379 34.9854 29.396 34.2392 25.8514C33.9611 24.5041 33.2991 23.5198 32.7149 22.6511C31.8099 21.3052 31.1563 20.3331 32.1479 18.5376C33.3097 16.4433 38.5712 12.4667 38.6245 12.4269Z" fill="#DB380E" />
		<path d="M11.749 32.6197C11.572 33.1496 11.6556 33.6752 11.9904 34.1403C13.1096 35.6942 17.0741 36.5497 23.1541 36.5497C23.1544 36.5497 23.1546 36.5497 23.1549 36.5497C23.9787 36.5497 24.8484 36.5336 25.7393 36.5016C35.46 36.1537 39.0655 33.1253 39.2142 32.9966C39.3763 32.8562 39.4196 32.6226 39.3189 32.4336C39.2181 32.2447 39.0007 32.1498 38.793 32.207C35.3695 33.1417 28.9768 33.4736 24.5427 33.4736C19.5811 33.4736 17.0543 33.1161 16.4357 32.8522C16.7531 32.4163 18.7109 31.638 21.137 31.1608C21.3689 31.1153 21.5282 30.9012 21.5053 30.666C21.4823 30.4308 21.2848 30.2515 21.0484 30.2515C19.6263 30.2515 12.4945 30.3657 11.749 32.6197Z" fill="#73A1FB" />
		<path d="M44.2766 29.5005C42.2716 29.5005 40.3703 30.5054 40.2903 30.548C40.1049 30.6473 40.0108 30.8599 40.0617 31.0642C40.1128 31.2682 40.2962 31.4116 40.5065 31.4118C40.549 31.4118 44.7833 31.4465 45.1668 33.8658C45.5065 35.9529 41.1605 39.3345 39.4572 40.4616C39.2732 40.5833 39.2018 40.8184 39.2872 41.0219C39.3599 41.195 39.5285 41.3033 39.7102 41.3033C39.742 41.3033 39.7741 41.3 39.8061 41.2932C40.2103 41.2067 49.6943 39.1168 48.6915 33.595C48.0798 30.2109 45.9529 29.5005 44.2766 29.5005Z" fill="#73A1FB" />
		<path d="M37.7725 39.7858C37.8056 39.6089 37.732 39.429 37.5847 39.3256L35.3107 37.7328C35.1998 37.6551 35.0597 37.6308 34.9295 37.6652C34.9058 37.6712 32.5278 38.2964 29.0752 38.6798C27.705 38.8335 26.1702 38.9146 24.6366 38.9146C21.1849 38.9146 18.928 38.509 18.5994 38.2115C18.5558 38.128 18.5696 38.09 18.5774 38.0689C18.6371 37.9029 18.9571 37.7056 19.1634 37.6275C19.3912 37.5431 19.5141 37.2957 19.4432 37.0634C19.3725 36.8308 19.1329 36.694 18.8964 36.7507C16.6153 37.3012 15.4999 38.071 15.581 39.0386C15.7252 40.7543 19.699 41.6349 23.0585 41.8676C23.5416 41.9007 24.0641 41.9174 24.6111 41.9174C24.6114 41.9174 24.6116 41.9174 24.6119 41.9174C30.1982 41.9174 37.3597 40.1647 37.4312 40.1468C37.6061 40.1042 37.7394 39.963 37.7725 39.7858Z" fill="#73A1FB" />
		<path d="M20.6285 43.4678C20.8008 43.3558 20.8771 43.1429 20.816 42.9468C20.7551 42.7507 20.5717 42.6218 20.3656 42.6246C20.0599 42.6326 17.3743 42.7538 17.1863 44.4637C17.1294 44.9747 17.2757 45.4416 17.6215 45.8512C18.5857 46.994 21.1886 47.6732 25.5775 47.9276C26.0968 47.9588 26.6242 47.9744 27.1453 47.9744C32.7251 47.9744 36.483 46.2274 36.6404 46.153C36.793 46.0808 36.8936 45.9309 36.9026 45.7624C36.9116 45.594 36.8275 45.4342 36.6835 45.3461L33.8097 43.5918C33.7099 43.5309 33.5906 43.5108 33.4769 43.5341C33.4587 43.5379 31.634 43.9164 28.8802 44.2902C28.3592 44.3611 27.7066 44.3971 26.941 44.3971C24.1902 44.3971 21.1306 43.9477 20.5438 43.6533C20.5352 43.5984 20.5461 43.5287 20.6285 43.4678Z" fill="#73A1FB" />
		<path d="M24.5448 53.2494C37.3257 53.2385 44.1854 50.9656 45.5069 49.5353C45.9747 49.0293 46.0252 48.5503 45.9855 48.2373C45.8873 47.4673 45.1859 46.9959 45.1064 46.9447C44.9145 46.8214 44.657 46.8536 44.5074 47.0262C44.3581 47.1988 44.3546 47.451 44.5045 47.6235C44.5851 47.7272 44.6317 47.9008 44.396 48.1367C43.8677 48.6301 38.5395 50.1278 29.6679 50.5778C28.4526 50.6409 27.178 50.673 25.8796 50.6732C17.9364 50.6732 12.1232 49.5852 11.3601 48.9512C11.6542 48.5286 13.7105 47.8534 15.8972 47.4715C16.1436 47.4285 16.3101 47.1963 16.2719 46.9491C16.2338 46.702 16.0059 46.532 15.7569 46.5642C15.6952 46.5726 15.4859 46.5851 15.2435 46.6C11.6354 46.8203 7.4659 47.3113 7.24835 49.1703C7.18229 49.7368 7.35062 50.2511 7.74885 50.6986C8.72328 51.7935 11.5241 53.2491 24.5443 53.2491C24.5445 53.2494 24.5445 53.2494 24.5448 53.2494Z" fill="#73A1FB" />
		<path d="M48.0173 49.9384C47.8366 49.8548 47.6231 49.897 47.4884 50.0425C47.4697 50.0627 45.548 52.0721 39.7704 53.252C37.5585 53.6952 33.4066 53.92 27.43 53.92C21.4422 53.92 15.7446 53.6844 15.6878 53.682C15.4498 53.6704 15.2462 53.8434 15.2139 54.0777C15.1814 54.3118 15.3323 54.5325 15.5621 54.5872C15.6214 54.6012 21.5925 56.0001 29.7567 56.0001C33.6725 56.0001 37.4829 55.6821 41.0824 55.0545C47.7937 53.878 48.2636 50.5501 48.2804 50.409C48.3038 50.2118 48.1977 50.0219 48.0173 49.9384Z" fill="#73A1FB" />
	</g>
	<defs>
		<clipPath id="clip0_111_6">
			<rect width="56" height="56" fill="white" />
		</clipPath>
	</defs>
</svg>