<svg width="100%" height="100%" viewBox="0 0 24 24" fill="none" xmlns="http://www.w3.org/2000/svg">
	<g clip-path="url(#clip0_109_2)">
		<path d="M23.693 10.7058L18.963 2.52137C18.5536 1.81077 17.5464 1.22717 16.7228 1.22717H7.2725C6.4535 1.22717 5.4417 1.81077 5.0323 2.52137L0.307003 10.7058C-0.102497 11.4164 -0.102497 12.5788 0.307003 13.2895L5.0322 21.4785C5.4416 22.1892 6.4488 22.7728 7.2724 22.7728H16.7274C17.5464 22.7728 18.5534 22.1892 18.9676 21.4786L23.6928 13.2896C24.1023 12.5789 24.1023 11.4164 23.6928 10.7058H23.693ZM10.9763 5.75467C10.9763 5.21817 11.414 4.78047 11.9505 4.78047C12.487 4.78047 12.9247 5.21817 12.9247 5.75467V11.5764C12.9247 12.113 12.487 12.5506 11.9505 12.5506C11.414 12.5506 10.9763 12.113 10.9763 11.5764V5.75467ZM11.9505 18.1841C8.3078 18.1841 5.3428 15.2191 5.3428 11.5764C5.3475 9.48677 6.3358 7.52427 8.0113 6.27237C8.10266 6.20412 8.20661 6.15458 8.31717 6.12662C8.42774 6.09866 8.54274 6.09281 8.65556 6.10943C8.76839 6.12604 8.87682 6.16479 8.97463 6.22343C9.07244 6.28208 9.1577 6.35948 9.2255 6.45117C9.29378 6.54254 9.34332 6.64649 9.37129 6.75707C9.39927 6.86764 9.40511 6.98265 9.3885 7.09549C9.37188 7.20833 9.33313 7.31677 9.27448 7.41459C9.21582 7.5124 9.13841 7.59767 9.0467 7.66547C6.8865 9.27027 6.4347 12.3247 8.0395 14.4849C9.6444 16.6452 12.6988 17.0969 14.859 15.4921C16.0968 14.5744 16.8263 13.1201 16.8263 11.5764C16.8243 10.8126 16.6436 10.0598 16.2987 9.37833C15.9539 8.69681 15.4544 8.1054 14.8402 7.65137C14.4542 7.36897 14.3742 6.82297 14.6566 6.43707C14.939 6.05107 15.4849 5.97107 15.8709 6.25357C17.5604 7.50067 18.5535 9.47737 18.5582 11.5764C18.5582 15.2238 15.5932 18.1841 11.9505 18.1841V18.1841Z" fill="#6DB33F" />
	</g>
	<defs>
		<clipPath id="clip0_109_2">
			<rect width="24" height="24" fill="white" />
		</clipPath>
	</defs>
</svg>
