<svg width="512" height="512" viewBox="0 0 512 512" fill="none" xmlns="http://www.w3.org/2000/svg">
<path d="M241.547 355.657L244.978 403.672C244.978 403.672 246.731 410.689 255.501 410.689C264.269 410.689 266.024 403.672 266.024 403.672L269.453 355.657C269.327 355.71 269.198 355.763 269.068 355.815C265.957 357.059 261.554 358.071 255.501 358.071C249.448 358.071 245.045 357.059 241.934 355.815C241.802 355.763 241.673 355.71 241.547 355.657Z" fill="url(#paint0_linear_1_21)"/>
<path d="M234.602 268.567L241.469 347.548C241.469 347.548 244.978 351.054 255.501 351.054C266.025 351.054 269.533 347.548 269.533 347.548L276.401 268.567C272.092 271.074 265.101 273.883 255.501 273.883C245.897 273.883 238.908 271.073 234.602 268.567Z" fill="url(#paint1_linear_1_21)"/>
<path d="M231.769 190.974C230.64 191.768 229.746 192.895 229.239 194.248L222.167 213.107C221.037 216.116 220.976 219.422 221.992 222.471L233.406 256.709C234.094 258.776 235.248 260.675 237.077 261.858C240.282 263.932 246.424 266.867 255.501 266.867C264.576 266.867 270.718 263.932 273.923 261.858C275.752 260.675 276.906 258.776 277.594 256.709L289.008 222.471C290.024 219.422 289.963 216.116 288.833 213.107L281.761 194.248C281.254 192.895 280.36 191.768 279.231 190.974C272.985 196.714 264.652 200.219 255.501 200.219C246.348 200.219 238.015 196.714 231.769 190.974Z" fill="url(#paint2_linear_1_21)"/>
<path d="M227.437 165.141C227.437 160.943 224.947 156.807 221.243 154.828C212.405 150.104 206.39 140.785 206.39 130.062C206.39 114.564 218.955 102 234.454 102C237.161 102 239.779 102.383 242.254 103.099C250.363 105.44 260.636 105.44 268.746 103.099C271.223 102.383 273.841 102 276.548 102C292.047 102 304.61 114.564 304.61 130.062C304.61 140.785 298.597 150.104 289.757 154.828C286.055 156.807 283.563 160.943 283.563 165.141C283.563 180.639 271 193.203 255.501 193.203C240.002 193.203 227.437 180.639 227.437 165.141Z" fill="url(#paint3_linear_1_21)"/>
<path d="M76.6024 207.234H216.213C209.899 217.758 214.476 224.478 216.914 231.789L85.8419 269.326C77.4716 271.683 68.514 268.652 63.2965 261.695L55.0482 250.697C50.2663 244.32 49.496 235.787 53.0614 228.656L57.9548 218.868C61.4928 211.796 68.695 207.302 76.6024 207.234Z" fill="url(#paint4_linear_1_21)"/>
<path d="M218.669 200.219L59.0619 196.474C50.1528 196.103 42.357 190.966 39.7345 182.443L31.9324 157.239C31.3094 155.217 31.0064 153.153 31.0001 151.109C30.9832 144.672 33.9256 138.44 39.2084 134.373L55.3093 121.978C61.3434 117.331 69.4191 116.308 76.4235 119.302C94.4502 126.729 202.619 173.468 221.211 181.504C222.807 182.194 223.6 183.922 223.173 185.607C222.872 186.806 222.514 188.25 222.175 189.695C221.188 193.913 218.669 200.219 218.669 200.219Z" fill="url(#paint5_linear_1_21)"/>
<path d="M434.4 207.234H294.787C301.101 217.758 296.524 224.478 294.086 231.789L425.158 269.326C433.528 271.683 442.486 268.652 447.703 261.695L455.952 250.697C460.736 244.32 461.504 235.787 457.939 228.657L453.045 218.868C449.509 211.796 442.307 207.302 434.4 207.234Z" fill="url(#paint6_linear_1_21)"/>
<path d="M292.333 200.219L451.938 196.475C460.847 196.103 468.643 190.966 471.265 182.443L479.07 157.24C479.691 155.217 479.996 153.153 480 151.109C480.019 144.672 477.074 138.44 471.792 134.373L455.693 121.978C449.657 117.331 441.581 116.308 434.579 119.303C416.55 126.73 308.381 173.468 289.791 181.504C288.195 182.194 287.402 183.922 287.827 185.607C288.13 186.806 288.486 188.25 288.825 189.696C289.812 193.914 292.333 200.219 292.333 200.219Z" fill="url(#paint7_linear_1_21)"/>
<defs>
<linearGradient id="paint0_linear_1_21" x1="255.501" y1="102" x2="255.501" y2="410.689" gradientUnits="userSpaceOnUse">
<stop stop-color="#5A3EE0"/>
<stop offset="1" stop-color="#3E74E0"/>
</linearGradient>
<linearGradient id="paint1_linear_1_21" x1="255.501" y1="102" x2="255.501" y2="410.689" gradientUnits="userSpaceOnUse">
<stop stop-color="#5A3EE0"/>
<stop offset="1" stop-color="#3E74E0"/>
</linearGradient>
<linearGradient id="paint2_linear_1_21" x1="255.501" y1="102" x2="255.501" y2="410.689" gradientUnits="userSpaceOnUse">
<stop stop-color="#5A3EE0"/>
<stop offset="1" stop-color="#3E74E0"/>
</linearGradient>
<linearGradient id="paint3_linear_1_21" x1="255.501" y1="102" x2="255.501" y2="410.689" gradientUnits="userSpaceOnUse">
<stop stop-color="#5A3EE0"/>
<stop offset="1" stop-color="#3E74E0"/>
</linearGradient>
<linearGradient id="paint4_linear_1_21" x1="255.501" y1="102" x2="255.501" y2="410.689" gradientUnits="userSpaceOnUse">
<stop stop-color="#5A3EE0"/>
<stop offset="1" stop-color="#3E74E0"/>
</linearGradient>
<linearGradient id="paint5_linear_1_21" x1="255.501" y1="102" x2="255.501" y2="410.689" gradientUnits="userSpaceOnUse">
<stop stop-color="#5A3EE0"/>
<stop offset="1" stop-color="#3E74E0"/>
</linearGradient>
<linearGradient id="paint6_linear_1_21" x1="255.501" y1="102" x2="255.501" y2="410.689" gradientUnits="userSpaceOnUse">
<stop stop-color="#5A3EE0"/>
<stop offset="1" stop-color="#3E74E0"/>
</linearGradient>
<linearGradient id="paint7_linear_1_21" x1="255.501" y1="102" x2="255.501" y2="410.689" gradientUnits="userSpaceOnUse">
<stop stop-color="#5A3EE0"/>
<stop offset="1" stop-color="#3E74E0"/>
</linearGradient>
</defs>
</svg>
