<svg width="256" height="256" viewBox="0 0 256 256" fill="none" xmlns="http://www.w3.org/2000/svg">
<path d="M72.578 61.3774C70.1792 61.3774 68.5522 61.6691 66.8627 62.065V62.3358H67.1547C68.2811 64.5027 70.2001 66.0862 71.6184 68.024C72.7448 70.2534 73.7043 72.4828 74.8307 74.6914L75.1227 74.3788C77.0834 73.0037 78.0429 70.7951 78.0429 67.4406C77.2086 66.4613 77.0834 65.482 76.3742 64.5236C75.5399 63.1276 73.746 62.44 72.6197 61.3357L72.578 61.3774ZM214.814 182.432C203.654 182.141 194.998 183.266 187.76 186.35C185.674 187.183 182.337 187.183 182.045 189.829C183.192 190.933 183.359 192.746 184.339 194.288C186.008 197.08 188.886 200.809 191.556 202.768C194.476 205.06 197.397 207.269 200.463 209.227C205.886 212.561 212.039 214.54 217.358 217.895C220.383 219.853 223.47 222.333 226.536 224.416C228.059 225.458 229.039 227.333 231 228V227.583C230.04 226.333 229.749 224.52 228.81 223.124C227.412 221.728 226.015 220.478 224.638 219.103C220.543 213.712 215.655 208.971 210.141 205.039C205.678 201.997 195.916 197.747 194.08 192.642L193.809 192.35C196.854 192.079 200.484 190.975 203.404 190.142C208.139 188.892 212.477 189.162 217.379 187.933C219.59 187.37 221.822 186.683 224.054 185.975V184.724C221.551 182.224 219.674 178.828 217.087 176.494C209.868 170.191 202.169 164.458 194.059 159.347C189.679 156.555 184.13 154.763 179.521 152.387C177.852 151.554 175.057 151.137 174.097 149.741C171.594 146.699 170.134 142.657 168.361 139.032C164.265 131.095 160.46 123.013 156.951 114.8C154.448 109.341 152.926 103.903 149.859 98.9024C135.467 75.2123 119.885 60.8565 95.9188 46.8133C90.7667 43.8963 84.5926 42.6461 78.0638 41.1043C74.5804 40.9376 71.097 40.6876 67.6344 40.5417C65.34 39.5625 63.129 36.9163 61.1682 35.6454C53.2419 30.6448 32.717 19.8103 26.8766 34.1452C23.122 43.1879 32.4458 52.1055 35.6789 56.6894C38.0777 59.8772 41.1022 63.5235 42.7709 67.1072C43.7512 69.5241 44.0224 72.0036 45.0028 74.5247C47.2138 80.6504 49.3205 87.4844 52.2407 93.2142C53.7634 96.1312 55.4321 99.1941 57.3928 101.819C58.5192 103.34 60.4382 104.049 60.8762 106.549C58.9155 109.383 58.7904 113.508 57.664 116.967C52.6579 132.739 54.6186 152.242 61.7106 163.847C63.9424 167.306 69.2614 174.973 76.3742 172.035C82.6318 169.535 81.2552 161.618 83.049 154.638C83.4662 152.971 83.195 151.867 84.0502 150.741V151.054C86.011 154.971 87.9717 158.701 89.7655 162.618C94.0624 169.452 101.572 176.536 107.85 181.266C111.187 183.766 113.836 188.1 118.008 189.642V189.225H117.695C116.798 188.016 115.609 187.433 114.483 186.454C111.838 183.868 109.398 181.081 107.182 178.119C101.306 170.098 96.0944 161.611 91.6011 152.742C89.3066 148.366 87.3876 143.657 85.5521 139.344C84.7177 137.678 84.7177 135.177 83.3202 134.344C81.2343 137.386 78.1681 140.032 76.6454 143.782C73.9963 149.783 73.7252 157.159 72.724 164.826C72.1608 164.972 72.432 164.826 72.1608 165.118C67.697 164.035 66.1743 159.409 64.5056 155.534C60.3339 145.637 59.6456 129.739 63.2541 118.342C64.2345 115.425 68.4062 106.216 66.7375 103.424C65.8615 100.778 63.1081 99.2566 61.5854 97.1105C59.6267 94.3173 57.9498 91.3372 56.5793 88.2137C53.2419 80.4212 51.5733 71.7952 47.9438 64.0027C46.2752 60.3981 43.3549 56.6269 40.977 53.314C38.328 49.5636 35.4078 46.9174 33.301 42.4795C32.6127 40.9585 31.6324 38.4374 32.7379 36.7705C33.0299 35.6454 33.6139 35.2078 34.6986 34.8953C36.5341 33.3951 41.6862 35.3537 43.5009 36.1871C48.653 38.2707 52.9917 40.2292 57.3094 43.1462C59.2701 44.5214 61.3768 47.1675 63.8799 47.8551H66.8001C71.2639 48.8343 76.2908 48.1468 80.4625 49.3761C87.8674 51.7513 94.5422 55.21 100.529 58.9605C118.975 70.7308 133.978 87.1626 144.019 106.591C145.688 109.799 146.418 112.737 147.94 116.071C150.861 122.947 154.469 129.885 157.431 136.532C160.351 143.095 163.167 149.783 167.36 155.221C169.446 158.138 177.831 159.659 181.586 161.18C184.36 162.43 188.678 163.576 191.181 165.097C195.978 168.014 200.651 171.348 205.156 174.557C207.45 176.14 214.396 179.62 214.814 182.432Z" fill="#81B2D7"/>
</svg>
