<svg width="100" height="100" viewBox="0 0 100 100" fill="none" xmlns="http://www.w3.org/2000/svg">
<path d="M34.2718 35.7245C36.8469 26.0569 41.87 17.23 48.8485 10.1091L49.5459 9.39761C50.0698 8.86303 50.9276 8.86816 51.4451 9.40901L52.5042 10.5158C59.2607 17.5761 64.1477 26.2357 66.7156 35.6981C66.9353 36.5076 66.331 37.3058 65.4986 37.3058H35.4748C34.6555 37.3058 34.0593 36.5221 34.2718 35.7245Z" fill="url(#paint0_linear_1143_1092)"/>
<path fill-rule="evenodd" clip-rule="evenodd" d="M33.8914 55.4512C33.1202 55.4512 32.4364 55.9048 32.4827 56.8535C32.65 60.2902 33.1001 63.1632 33.4902 66.0208L33.5729 66.3718C33.7001 67.0951 34.3467 67.5488 35.05 67.5488H65.9039C66.5505 67.5488 67.1159 67.109 67.2801 66.4786L67.3817 66.0883C67.9015 63.6169 68.2013 61.0462 68.5175 56.7565C68.5805 55.9048 67.9242 55.4512 67.2065 55.4512H33.8914ZM43.3005 59.3828C43.1348 59.3828 43.0005 59.5182 43.0005 59.6852V63.3145C43.0005 63.4815 43.1348 63.6169 43.3005 63.6169H57.701C57.8668 63.6169 58.0011 63.4815 58.0011 63.3145V59.6852C58.0011 59.5182 57.8668 59.3828 57.701 59.3828H43.3005Z" fill="url(#paint1_linear_1143_1092)"/>
<path fill-rule="evenodd" clip-rule="evenodd" d="M39.9999 70.5742C40.8283 70.5742 41.4999 71.2512 41.4999 72.0863V75.9966C41.4999 76.7987 41.3499 77.5302 40.6212 78.1352L32.9603 83.7411L30.8389 81.6025L38.4998 75.9966V72.0863C38.4998 71.2512 39.1714 70.5742 39.9999 70.5742Z" fill="#3180FF"/>
<path fill-rule="evenodd" clip-rule="evenodd" d="M28.0002 88.7207C29.6572 88.7207 31.0004 87.3668 31.0004 85.6964C31.0004 84.026 29.6572 82.672 28.0002 82.672C26.3433 82.672 25.0001 84.026 25.0001 85.6964C25.0001 87.3668 26.3433 88.7207 28.0002 88.7207ZM28.0002 91.7451C31.3141 91.7451 34.0005 89.0369 34.0005 85.6964C34.0005 82.3556 31.3141 79.6475 28.0002 79.6475C24.6864 79.6475 22 82.3556 22 85.6964C22 89.0369 24.6864 91.7451 28.0002 91.7451Z" fill="#3180FF"/>
<path fill-rule="evenodd" clip-rule="evenodd" d="M61.0012 70.5742C60.1727 70.5742 59.501 71.2512 59.501 72.0863V75.9966C59.501 76.7987 59.501 77.5302 60.3799 78.1352L68.3407 83.7411L70.4623 81.6025L62.5012 75.9966V72.0863C62.5012 71.2512 61.8295 70.5742 61.0012 70.5742Z" fill="#3180FF"/>
<path fill-rule="evenodd" clip-rule="evenodd" d="M72.9991 88.7207C71.3423 88.7207 69.9991 87.3668 69.9991 85.6964C69.9991 84.026 71.3423 82.672 72.9991 82.672C74.6561 82.672 75.9994 84.026 75.9994 85.6964C75.9994 87.3668 74.6561 88.7207 72.9991 88.7207ZM72.9991 91.7451C69.6853 91.7451 66.999 89.0369 66.999 85.6964C66.999 82.3556 69.6853 79.6475 72.9991 79.6475C76.3129 79.6475 78.9994 82.3556 78.9994 85.6964C78.9994 89.0369 76.3129 91.7451 72.9991 91.7451Z" fill="#3180FF"/>
<path fill-rule="evenodd" clip-rule="evenodd" d="M50.501 70.5742C51.3295 70.5742 52.001 71.2512 52.001 72.0863V81.1595H49.001V72.0863C49.001 71.2512 49.6725 70.5742 50.501 70.5742Z" fill="#3180FF"/>
<path fill-rule="evenodd" clip-rule="evenodd" d="M50.5003 88.7207C52.1573 88.7207 53.5003 87.3668 53.5003 85.6964C53.5003 84.026 52.1573 82.672 50.5003 82.672C48.8433 82.672 47.5003 84.026 47.5003 85.6964C47.5003 87.3668 48.8433 88.7207 50.5003 88.7207ZM50.5003 91.7451C53.8141 91.7451 56.5006 89.0369 56.5006 85.6964C56.5006 82.3556 53.8141 79.6475 50.5003 79.6475C47.1865 79.6475 44.5 82.3556 44.5 85.6964C44.5 89.0369 47.1865 91.7451 50.5003 91.7451Z" fill="#3180FF"/>
<path fill-rule="evenodd" clip-rule="evenodd" d="M34.4151 40.3291C33.8161 40.3291 33.2511 40.6317 33.1322 41.3148C32.4581 45.2292 32.4036 48.495 32.4711 51.2204C32.4878 51.8915 33.0322 52.4267 33.6981 52.4267H67.3054C67.9712 52.4267 68.5158 51.8915 68.5323 51.2204C68.5323 48.344 68.7252 45.8342 67.8713 41.3148C67.7125 40.7326 67.1872 40.3291 66.5884 40.3291H34.4151ZM43.3014 44.261C43.1358 44.261 43.0014 44.3964 43.0014 44.5634V48.1927C43.0014 48.3596 43.1358 48.495 43.3014 48.495H57.7021C57.8677 48.495 58.002 48.3596 58.002 48.1927V44.5634C58.002 44.3964 57.8677 44.261 57.7021 44.261H43.3014Z" fill="url(#paint2_linear_1143_1092)"/>
<defs>
<linearGradient id="paint0_linear_1143_1092" x1="50.5012" y1="10.0861" x2="50.5012" y2="37.3058" gradientUnits="userSpaceOnUse">
<stop stop-color="#36E7FC"/>
<stop offset="1" stop-color="#3CC5FE"/>
</linearGradient>
<linearGradient id="paint1_linear_1143_1092" x1="59.4638" y1="67.6072" x2="59.4638" y2="55.3844" gradientUnits="userSpaceOnUse">
<stop stop-color="#3180FF"/>
<stop offset="1" stop-color="#3FB1FE"/>
</linearGradient>
<linearGradient id="paint2_linear_1143_1092" x1="50.5001" y1="40.3291" x2="50.5001" y2="52.4267" gradientUnits="userSpaceOnUse">
<stop stop-color="#3BC6FD"/>
<stop offset="1" stop-color="#3EB0FD"/>
</linearGradient>
</defs>
</svg>
