<svg width="256" height="256" viewBox="0 0 256 256" fill="none" xmlns="http://www.w3.org/2000/svg">
<g clip-path="url(#clip0_1_2)">
<path d="M88.2871 111.575H101.114V144.415H88.2871V111.575ZM72.7399 112.028L46.704 125.815C46.5182 125.911 46.3113 125.962 46.1013 125.962C45.8913 125.962 45.6844 125.911 45.4986 125.815L19.4626 112.028C18.8896 111.729 18.2507 111.574 17.6023 111.575H17.5699C16.6819 111.524 15.8091 111.82 15.1408 112.399C14.4725 112.979 14.0626 113.795 14 114.67V144.377H26.8152V130.237C26.8399 130.025 26.9181 129.822 27.0427 129.648C27.1673 129.473 27.3343 129.332 27.5284 129.238C27.7225 129.144 27.9375 129.099 28.1536 129.108C28.3698 129.117 28.5802 129.179 28.7656 129.289L43.3566 137.027C44.0796 137.403 44.8834 137.603 45.7008 137.61C46.5181 137.617 47.3252 137.43 48.0545 137.066L63.4511 129.236C63.6366 129.13 63.8461 129.071 64.0605 129.065C64.2749 129.059 64.4876 129.105 64.6792 129.2C64.8708 129.296 65.0354 129.436 65.158 129.61C65.2807 129.784 65.3576 129.985 65.3818 130.195V144.377H78.1969V114.67C78.1343 113.796 77.7252 112.98 77.0582 112.401C76.3911 111.822 75.5197 111.525 74.6326 111.575H74.6003C73.9519 111.574 73.313 111.729 72.7399 112.028ZM165.071 111.575H152.063V126.522C152.04 126.728 151.966 126.926 151.848 127.098C151.73 127.269 151.571 127.41 151.385 127.506C151.199 127.603 150.992 127.654 150.781 127.653C150.571 127.652 150.364 127.601 150.179 127.503L116.468 111.938C115.942 111.698 115.37 111.574 114.791 111.575H114.768C113.88 111.524 113.007 111.82 112.339 112.399C111.671 112.979 111.261 113.795 111.198 114.67V144.379H124.102V129.449C124.125 129.243 124.199 129.045 124.317 128.874C124.435 128.703 124.594 128.562 124.78 128.465C124.965 128.368 125.172 128.318 125.382 128.318C125.592 128.318 125.799 128.369 125.985 128.466L159.828 144.031C160.352 144.271 160.923 144.394 161.501 144.393C162.389 144.444 163.262 144.148 163.93 143.569C164.599 142.989 165.009 142.173 165.071 141.298V111.575ZM175.156 144.415V111.575H181.058V144.415H175.156ZM215.792 145C199.916 145 188.652 138.468 188.652 128.001C188.652 117.589 199.983 111 215.792 111C231.602 111 243 117.532 243 128.001C243 138.47 231.872 145 215.792 145ZM215.792 115.353C203.987 115.353 194.894 119.823 194.894 127.999C194.894 136.235 203.987 140.646 215.792 140.646C227.598 140.646 236.757 136.235 236.757 127.999C236.757 119.823 227.598 115.353 215.792 115.353Z" fill="#C72C48"/>
</g>
<defs>
<clipPath id="clip0_1_2">
<rect width="229" height="34" fill="white" transform="translate(14 111)"/>
</clipPath>
</defs>
</svg>
