<svg width="24" height="22" viewBox="0 0 24 22" fill="none" xmlns="http://www.w3.org/2000/svg">
<path d="M2.203 7.61084H0.857C0.634277 7.6119 0.420976 7.70084 0.263485 7.85833C0.105995 8.01582 0.0170518 8.22912 0.016 8.45184V9.30984C0.00615728 9.5097 0.000822591 9.70975 0 9.90984C0 16.5368 5.373 21.9098 12 21.9098C18.527 21.9098 23.837 16.6978 23.996 10.2088C23.996 10.1838 24 10.1588 24 10.1338V8.45184C23.9989 8.22912 23.91 8.01582 23.7525 7.85833C23.595 7.70084 23.3817 7.6119 23.159 7.61084H21.813C20.654 3.28184 16.701 0.0898438 12.008 0.0898438C7.316 0.0898438 3.363 3.28184 2.203 7.61084ZM20.647 7.61084H3.37C4.497 3.90884 7.94 1.21184 12.008 1.21184C16.077 1.21184 19.52 3.90884 20.647 7.61084Z" fill="white"/>
</svg>
