<svg xmlns="http://www.w3.org/2000/svg" version="1.1" xmlns:xlink="http://www.w3.org/1999/xlink" xmlns:svgjs="http://svgjs.com/svgjs" width="512" height="512" x="0" y="0" viewBox="0 0 406.06 406.06" style="enable-background:new 0 0 512 512" xml:space="preserve" class=""><g><g xmlns="http://www.w3.org/2000/svg" id="圖層_3"><g><path d="m328.07 134.6c-14.09-11.26-19.92-29.01-16.66-45.56-32.4-2.8-51.94-39.11-37.06-67.55-125.29-50.89-267.96 45.73-266.32 181.54 0 107.69 87.3 195 195 195 133.88 2.03 231.08-138.7 182.81-262.99-16.66 12.92-40.57 13.3-57.77-.44zm-125.04 126.64c-32.15 0-58.21-26.06-58.21-58.21 3.07-77.21 113.36-77.19 116.41 0 .01 32.15-26.05 58.21-58.2 58.21z" fill="#ffffff" data-original="#ffffff"></path></g></g><g xmlns="http://www.w3.org/2000/svg" id="圖層_2"><g><path d="m328.07 134.6c-14.09-11.26-19.92-29.01-16.66-45.56-32.4-2.8-51.94-39.11-37.06-67.55-128.57-50.35-252.24 42.44-250.32 181.54 0 107.69 71.3 195 179 195 133.88 2.03 231.08-138.7 182.81-262.99-16.66 12.92-40.57 13.3-57.77-.44zm-125.04 126.64c-32.15 0-58.21-26.06-58.21-58.21 3.07-77.21 113.36-77.19 116.41 0 .01 32.15-26.05 58.21-58.2 58.21z" fill="#f9f0e1" data-original="#fbcb72" class=""></path></g></g><g xmlns="http://www.w3.org/2000/svg" id="圖層_1"><g fill="#231815"><path d="m390.52 133.29c-1.07-3.1-5.21-4.28-7.75-2.21-30.23 23.58-73.97-3.56-66.45-41.08.61-2.8-1.55-5.73-4.42-5.94-28.76-2.46-46.37-34.76-33.09-60.31 1.35-2.52.06-5.93-2.63-6.91-23.3-9.16-47.91-13.8-73.15-13.8-265.26 10.95-265.31 389.03 0 400 137.14 1.89 237-142.03 187.49-269.75zm-187.49 259.74c-104.77 0-190-85.23-190-190-1.78-129.58 133.54-224.35 254.63-178.72-11.36 28.84 7.28 63.22 38.1 68.94-4.34 41.48 41.89 70.89 77.52 49.56 41.95 120.48-52.52 251.87-180.25 250.22z" fill="#231815" data-original="#231815" class=""></path><path d="m203.03 139.83c-34.85 0-63.21 28.35-63.21 63.21 3.47 83.85 122.95 83.83 126.41 0 .01-34.86-28.35-63.21-63.2-63.21zm0 116.41c-29.34 0-53.21-23.87-53.21-53.21 2.92-70.58 103.5-70.56 106.41 0 .01 29.34-23.86 53.21-53.2 53.21z" fill="#231815" data-original="#231815" class=""></path></g></g></g></svg>
