<?xml version="1.0" encoding="UTF-8"?>
<svg version="1.1" xmlns="http://www.w3.org/2000/svg" width="175" height="161">
<path d="M0 0 C0.66 -0.99 1.32 -1.98 2 -3 C4 -3 6 -3 8 -3 C9.34275169 -3.98731742 10.67732273 -4.98594743 12 -6 C16.24583136 -6 19.12204054 -2.8140048 22 0 C23.17323064 3.73811252 22.92047784 6.52730366 22.0625 10.3125 C21.86785156 11.19550781 21.67320313 12.07851563 21.47265625 12.98828125 C21.23869141 13.98408203 21.23869141 13.98408203 21 15 C21.76441406 14.80664062 22.52882813 14.61328125 23.31640625 14.4140625 C35.9903067 11.33328285 48.23307697 9.81205637 61.25 9.625 C62.24362549 9.59897705 63.23725098 9.5729541 64.26098633 9.54614258 C72.6123438 9.52604554 80.34198746 11.10407341 87 16.375 C92.58675426 23.70761496 92.8063229 30.04703543 92 39 C87.38544533 64.7138078 68.71895836 90.76350524 47.75 105.625 C45.52327029 107.12147748 43.26980909 108.56987022 41 110 C39.90816406 110.6909375 38.81632812 111.381875 37.69140625 112.09375 C28.35962201 117.70360873 17.60178237 123.24270932 6.83935547 125.44140625 C4.73864108 125.8462434 4.73864108 125.8462434 3.734375 128.28515625 C3.40953125 129.20167969 3.0846875 130.11820313 2.75 131.0625 C2.41484375 131.98160156 2.0796875 132.90070313 1.734375 133.84765625 C1.37085937 134.91306641 1.37085937 134.91306641 1 136 C-0.65 136 -2.3 136 -4 136 C-4.226875 136.53625 -4.45375 137.0725 -4.6875 137.625 C-8.04359672 143.69793693 -10.31875737 146.08399659 -17 148.1875 C-19.32620432 148.81855883 -21.66002993 149.42207106 -24 150 C-25.74603516 150.45052734 -25.74603516 150.45052734 -27.52734375 150.91015625 C-32.81816061 152.21316384 -37.5272855 153.16312115 -43 153 C-42.45023697 142.17535545 -42.45023697 142.17535545 -39 137 C-39.20643199 134.74671588 -39.20643199 134.74671588 -40 133 C-43.07707547 133 -45.28999472 134.73218333 -47.9296875 136.22265625 C-50.49634057 137.18636184 -51.50582437 137.11686981 -54 136 C-59.10968125 130.74432785 -62.35201614 123.70923268 -65.5625 117.1875 C-65.93342773 116.45853516 -66.30435547 115.72957031 -66.68652344 114.97851562 C-69.16760486 109.73665848 -69.16760486 109.73665848 -68.34765625 106.1328125 C-66.82601873 103.72465572 -65.11362106 101.90225895 -63 100 C-65.475 100.99 -65.475 100.99 -68 102 C-69.75053767 99.45870221 -71.50044506 96.91697423 -73.25 94.375 C-73.74113281 93.66214844 -74.23226562 92.94929688 -74.73828125 92.21484375 C-75.70779514 90.8058169 -76.67335678 89.39406169 -77.63476562 87.97949219 C-78.49650261 86.7300352 -79.37830272 85.49396988 -80.28710938 84.27832031 C-83.03733438 80.51747046 -83.03733438 80.51747046 -82.85131836 77.93920898 C-82 76 -82 76 -80.23754883 74.98608398 C-79.48497803 74.74188721 -78.73240723 74.49769043 -77.95703125 74.24609375 C-77.13243408 73.95412109 -76.30783691 73.66214844 -75.45825195 73.36132812 C-74.58515381 73.05646484 -73.71205566 72.75160156 -72.8125 72.4375 C-66.46081489 70.03970808 -62.11326456 68.28601486 -58.8125 62 C-57.65535187 59.27704821 -57.65535187 59.27704821 -57 57 C-60.16337445 51.53598958 -64.39888161 47.51551754 -68.953125 43.171875 C-71 41 -71 41 -71 39 C-71.804375 38.690625 -72.60875 38.38125 -73.4375 38.0625 C-76 37 -76 37 -77 36 C-76.98831553 34.20643446 -76.89079285 32.41306914 -76.75 30.625 C-76.68296875 29.64789063 -76.6159375 28.67078125 -76.546875 27.6640625 C-75.93762241 24.69613205 -75.43243027 23.74865955 -73 22 C-71.1328125 21.3046875 -71.1328125 21.3046875 -69.125 20.875 C-68.13886719 20.65457031 -68.13886719 20.65457031 -67.1328125 20.4296875 C-65 20 -65 20 -62.41796875 19.7578125 C-59.81734107 19.21409254 -59.81734107 19.21409254 -58.48046875 16.8125 C-58.05378906 15.884375 -57.62710938 14.95625 -57.1875 14 C-52.15300036 4.12315719 -44.91619915 -3.96549525 -34.140625 -7.6328125 C-21.17747493 -9.85641853 -11.02405728 -6.78556594 0 0 Z " fill="#140E0E" transform="translate(83,8)"/>
<path d="M0 0 C0.27972656 0.93199219 0.55945313 1.86398438 0.84765625 2.82421875 C4.81226045 15.60205373 10.32656617 26.70807852 19 37 C19.47695312 37.598125 19.95390625 38.19625 20.4453125 38.8125 C22.5029423 41.3752964 24.23896065 43.1593071 27 45 C25.63343355 49.7221668 23.60879248 53.65808635 20.9375 57.75 C20.34630371 58.6625354 20.34630371 58.6625354 19.74316406 59.59350586 C16.01094422 65.21773326 11.71101042 70.16866908 7 75 C6.154375 75.886875 5.30875 76.77375 4.4375 77.6875 C3.633125 78.450625 2.82875 79.21375 2 80 C1.19755859 80.77730469 1.19755859 80.77730469 0.37890625 81.5703125 C-9.45740238 90.69088141 -31.85596539 106 -46 106 C-45.80664062 105.35933594 -45.61328125 104.71867187 -45.4140625 104.05859375 C-45.15367188 103.19363281 -44.89328125 102.32867187 -44.625 101.4375 C-44.36976562 100.59058594 -44.11453125 99.74367188 -43.8515625 98.87109375 C-42.87758718 95.58727789 -41.93918157 92.2939166 -41 89 C-45.91168879 89.54790079 -50.82296204 90.09934476 -55.73388672 90.65405273 C-57.40402498 90.84219853 -59.07427199 91.02938156 -60.74462891 91.21557617 C-63.14775474 91.48362263 -65.55046614 91.75514721 -67.953125 92.02734375 C-69.0705307 92.1508445 -69.0705307 92.1508445 -70.21051025 92.27684021 C-73.547043 92.65796292 -76.75834334 93.12221174 -80 94 C-81.58211573 94.06548492 -83.16670081 94.08578381 -84.75 94.0625 C-85.54921875 94.05347656 -86.3484375 94.04445313 -87.171875 94.03515625 C-87.77515625 94.02355469 -88.3784375 94.01195313 -89 94 C-88.34257813 95.20462891 -88.34257813 95.20462891 -87.671875 96.43359375 C-85.73391726 100.56760173 -84.46701555 104.67332262 -83.25 109.0625 C-82.90001953 110.24682617 -82.90001953 110.24682617 -82.54296875 111.45507812 C-80.43768947 118.97483314 -80.43768947 118.97483314 -82 123 C-83.84765625 125.89453125 -83.84765625 125.89453125 -86.0625 128.8125 C-86.79597656 129.78832031 -87.52945313 130.76414063 -88.28515625 131.76953125 C-88.85105469 132.50558594 -89.41695312 133.24164063 -90 134 C-90.66 133.67 -91.32 133.34 -92 133 C-90.19587629 127.32989691 -90.19587629 127.32989691 -88.8125 125 C-87.29537635 121.26554178 -88.72139669 117.68573086 -90.18334961 114.08740234 C-90.66811768 113.09691895 -91.15288574 112.10643555 -91.65234375 111.0859375 C-92.18150391 109.99539062 -92.71066406 108.90484375 -93.25585938 107.78125 C-93.81080078 106.6571875 -94.36574219 105.533125 -94.9375 104.375 C-95.48857422 103.24320312 -96.03964844 102.11140625 -96.60742188 100.9453125 C-99.31113922 95.34918878 -99.31113922 95.34918878 -102.17407227 89.83447266 C-103 88 -103 88 -103 85 C-106.465 85.99 -106.465 85.99 -110 87 C-115.60263889 76.49830943 -116.27254704 67.9440497 -112.859375 56.46484375 C-111.89052515 53.68600622 -110.83565949 51.31452718 -109 49 C-108.34 49 -107.68 49 -107 49 C-106.46375 49.86625 -105.9275 50.7325 -105.375 51.625 C-102.5553579 55.86962252 -99.78686339 59.0100325 -95 61 C-86.13344129 62.44024153 -77.22250187 61.54761169 -69 58 C-67.66869773 57.59738843 -66.33521534 57.20193781 -65 56.8125 C-51.09999094 52.13837724 -36.52591118 45.42759934 -28 33 C-25.63124789 27.93948412 -24.94310496 22.42297619 -26.60546875 17.0390625 C-27.81039049 14.1399107 -29.25833393 11.61249911 -31 9 C-31 7.68 -31 6.36 -31 5 C-21.32938293 0.77140318 -10.47138429 -0.5877908 0 0 Z " fill="#FA021B" transform="translate(135,22)"/>
<path d="M0 0 C0.66 -0.99 1.32 -1.98 2 -3 C4 -3 6 -3 8 -3 C9.34275169 -3.98731742 10.67732273 -4.98594743 12 -6 C16.24583136 -6 19.12204054 -2.8140048 22 0 C23 2.625 23 2.625 23 5 C22.34 5.99 21.68 6.98 21 8 C20.54860541 10.0492094 20.54860541 10.0492094 20.375 12.1875 C20.189375 14.0746875 20.189375 14.0746875 20 16 C19.67 16 19.34 16 19 16 C18.67 18.97 18.34 21.94 18 25 C18.66 25 19.32 25 20 25 C22.46119435 29.92238871 21.55611401 36.63513543 21 42 C18.30405105 49.32639561 12.61760672 53.35495594 6 57 C4.99066406 57.56460938 3.98132813 58.12921875 2.94140625 58.7109375 C-10.50819927 65.83223152 -26.50515502 72.58199117 -42 71 C-46.74264717 69.50191342 -50.47116864 67.42545488 -53 63 C-52.67 62.34 -52.34 61.68 -52 61 C-51.21625 61.639375 -50.4325 62.27875 -49.625 62.9375 C-43.89753576 67.43765048 -36.97238743 66.80652931 -30 66 C-15.18991321 63.10160593 3.65850538 56.86513339 13 44.3125 C14.19845558 41.96098074 14.19845558 41.96098074 14 39 C13.34 39 12.68 39 12 39 C11.7215625 40.051875 11.7215625 40.051875 11.4375 41.125 C5.72784468 52.54431065 -11.58790995 58.17416484 -22.9765625 62.08984375 C-30.27505621 64.28693553 -39.22313895 66.0646401 -46.44921875 62.94140625 C-54.8181794 57.05922248 -57.9907778 48.70889888 -60 39 C-60.43347653 36.32759614 -60.74551799 33.69750934 -61 31 C-61.10469338 36.75813575 -60.74016701 42.29014022 -60 48 C-61.485 48.495 -61.485 48.495 -63 49 C-64.33929505 47.71451591 -65.67128643 46.42141845 -67 45.125 C-67.7425 44.40570313 -68.485 43.68640625 -69.25 42.9453125 C-71 41 -71 41 -71 39 C-71.804375 38.690625 -72.60875 38.38125 -73.4375 38.0625 C-76 37 -76 37 -77 36 C-76.98831553 34.20643446 -76.89079285 32.41306914 -76.75 30.625 C-76.68296875 29.64789063 -76.6159375 28.67078125 -76.546875 27.6640625 C-75.93762241 24.69613205 -75.43243027 23.74865955 -73 22 C-71.1328125 21.3046875 -71.1328125 21.3046875 -69.125 20.875 C-68.13886719 20.65457031 -68.13886719 20.65457031 -67.1328125 20.4296875 C-65 20 -65 20 -62.41796875 19.7578125 C-59.81734107 19.21409254 -59.81734107 19.21409254 -58.48046875 16.8125 C-58.05378906 15.884375 -57.62710938 14.95625 -57.1875 14 C-52.15300036 4.12315719 -44.91619915 -3.96549525 -34.140625 -7.6328125 C-21.17747493 -9.85641853 -11.02405728 -6.78556594 0 0 Z " fill="#FAF9E1" transform="translate(83,8)"/>
<path d="M0 0 C0.33 0 0.66 0 1 0 C1 2.31 1 4.62 1 7 C1.85722656 6.7834375 2.71445313 6.566875 3.59765625 6.34375 C14.9543058 3.57820738 14.9543058 3.57820738 21 4 C21 4.33 21 4.66 21 5 C19.35 5.33 17.7 5.66 16 6 C16.495 6.99 16.495 6.99 17 8 C9.08 9.485 9.08 9.485 1 11 C2.50237778 14.50554816 4.00680648 18.01386505 5.6875 21.4375 C7.84253304 27.2868754 7.70895797 31.78616206 5.5 37.5 C0.33640966 47.88059713 -9.15707345 52.80543174 -19 58 C-19.88042969 58.49757812 -20.76085937 58.99515625 -21.66796875 59.5078125 C-27.30661218 62.5800913 -32.82349475 64.08822849 -39.1171875 65.32421875 C-41.91759862 65.83947312 -41.91759862 65.83947312 -43.8671875 67.05078125 C-49.30973913 69.47301576 -57.15400017 68.87581066 -63 68 C-66.40755734 66.55480901 -68.58145458 64.7705709 -71 62 C-71.825 61.0925 -72.65 60.185 -73.5 59.25 C-75 57 -75 57 -75 55 C-75.66 55 -76.32 55 -77 55 C-82.12453942 67.38801703 -83.63768344 77.28842206 -79 90 C-78.505 90.99 -78.505 90.99 -78 92 C-74.535 91.505 -74.535 91.505 -71 91 C-69.16235978 94.91227239 -67.32941187 98.82669811 -65.50073242 102.74316406 C-64.87831256 104.07449149 -64.25462672 105.40522783 -63.62963867 106.73535156 C-62.73020252 108.65014166 -61.8353786 110.56702904 -60.94140625 112.484375 C-60.40201416 113.63647461 -59.86262207 114.78857422 -59.30688477 115.97558594 C-58.27878424 118.35483295 -57.50185546 120.47173357 -57 123 C-58.03125 123.433125 -59.0625 123.86625 -60.125 124.3125 C-62.58662377 125.35185226 -64.83306577 126.45736944 -67.1875 127.75 C-70 129 -70 129 -71.97265625 128.828125 C-78.77910502 126.04784149 -82.46650806 115.47665539 -85.5625 109.1875 C-85.93342773 108.45853516 -86.30435547 107.72957031 -86.68652344 106.97851562 C-89.16760486 101.73665848 -89.16760486 101.73665848 -88.34765625 98.1328125 C-86.82601873 95.72465572 -85.11362106 93.90225895 -83 92 C-85.475 92.99 -85.475 92.99 -88 94 C-89.75053767 91.45870221 -91.50044506 88.91697423 -93.25 86.375 C-93.74113281 85.66214844 -94.23226562 84.94929688 -94.73828125 84.21484375 C-95.70779514 82.8058169 -96.67335678 81.39406169 -97.63476562 79.97949219 C-98.49650261 78.7300352 -99.37830272 77.49396988 -100.28710938 76.27832031 C-103.03733438 72.51747046 -103.03733438 72.51747046 -102.85131836 69.93920898 C-102 68 -102 68 -100.23754883 66.98608398 C-99.48497803 66.74188721 -98.73240723 66.49769043 -97.95703125 66.24609375 C-97.13243408 65.95412109 -96.30783691 65.66214844 -95.45825195 65.36132812 C-94.58515381 65.05646484 -93.71205566 64.75160156 -92.8125 64.4375 C-86.46081489 62.03970808 -82.11326456 60.28601486 -78.8125 54 C-77.65535187 51.27704821 -77.65535187 51.27704821 -77 49 C-77.639375 48.071875 -78.27875 47.14375 -78.9375 46.1875 C-81 43 -81 43 -82 40 C-81.34 40 -80.68 40 -80 40 C-80.144375 39.443125 -80.28875 38.88625 -80.4375 38.3125 C-82.06582577 31.61827184 -83.5048926 25.3004617 -80 19 C-79.85304688 20.66675781 -79.85304688 20.66675781 -79.703125 22.3671875 C-78.61619745 33.59119778 -77.30980269 43.69019731 -69 52 C-63.23056874 56.11539636 -57.84842613 55.64974163 -51 55 C-37.27458652 52.46534176 -20.96855895 46.04185717 -11 36 C-9.1737518 33.29492134 -9.1737518 33.29492134 -8 31 C-7.01 30.67 -6.02 30.34 -5 30 C-5.25348051 33.63322065 -5.66368965 35.59012176 -8 38.4375 C-8.99 39.283125 -9.98 40.12875 -11 41 C-11.61875 41.5465625 -12.2375 42.093125 -12.875 42.65625 C-26.23854618 53.85804607 -44.44637242 59.54734991 -61.73046875 59.56640625 C-65.62089555 58.89243745 -67.88798041 57.37533513 -71 55 C-70.00861634 58.19445845 -68.98029281 59.01174045 -66.0625 60.75 C-50.90120981 66.45114631 -32.68232937 57.18095996 -19 51 C-15.4974777 49.19741232 -12.22079161 47.26344379 -9 45 C-8.05125 44.360625 -7.1025 43.72125 -6.125 43.0625 C-2.08562272 39.14192793 0.21786686 35.21597144 0.390625 29.59765625 C0.3644394 28.08543763 0.31732579 26.57344609 0.25 25.0625 C0.23195313 24.28326172 0.21390625 23.50402344 0.1953125 22.70117188 C0.14866383 20.80023869 0.07693829 18.89994831 0 17 C-0.66 17 -1.32 17 -2 17 C-2.05418326 14.91695462 -2.09287551 12.83350232 -2.125 10.75 C-2.14820312 9.58984375 -2.17140625 8.4296875 -2.1953125 7.234375 C-2.0103949 4.17213954 -1.60823023 2.55797249 0 0 Z " fill="#111615" transform="translate(103,16)"/>
<path d="M0 0 C0.66 -0.99 1.32 -1.98 2 -3 C4 -3 6 -3 8 -3 C9.34275169 -3.98731742 10.67732273 -4.98594743 12 -6 C16.24583136 -6 19.12204054 -2.8140048 22 0 C23 2.625 23 2.625 23 5 C22.34 5.99 21.68 6.98 21 8 C20.54860541 10.0492094 20.54860541 10.0492094 20.375 12.1875 C20.189375 14.0746875 20.189375 14.0746875 20 16 C19.67 16 19.34 16 19 16 C18.67 18.97 18.34 21.94 18 25 C18.66 25 19.32 25 20 25 C22.46119435 29.92238871 21.55611401 36.63513543 21 42 C18.30405105 49.32639561 12.61760672 53.35495594 6 57 C4.99066406 57.56460938 3.98132813 58.12921875 2.94140625 58.7109375 C-10.50819927 65.83223152 -26.50515502 72.58199117 -42 71 C-46.74264717 69.50191342 -50.47116864 67.42545488 -53 63 C-52.67 62.34 -52.34 61.68 -52 61 C-51.21625 61.639375 -50.4325 62.27875 -49.625 62.9375 C-43.89753576 67.43765048 -36.97238743 66.80652931 -30 66 C-14.85321515 63.03571275 2.96746398 56.7364073 13.0625 44.5 C14.28330314 41.24452496 13.72921928 39.38092573 13 36 C13.04125 34.741875 13.0825 33.48375 13.125 32.1875 C13.18173399 22.22122867 7.77882715 13.91965703 1.01171875 6.953125 C-8.3092548 -1.5171966 -17.08613544 -4.5342309 -29.62890625 -4.30859375 C-34.26606175 -3.88410327 -37.26389803 -2.71129647 -41 0 C-41.71027344 0.474375 -42.42054687 0.94875 -43.15234375 1.4375 C-49.14974602 5.94910822 -50.73989676 10.74128029 -52 18 C-49.08482708 16.92598892 -47.22189824 16.22189824 -45 14 C-41.56553663 14.18733437 -38.94916078 14.35702012 -36.0625 16.3125 C-35 18 -35 18 -35 22 C-36.32 22 -37.64 22 -39 22 C-39.66 20.68 -40.32 19.36 -41 18 C-42.32 18.33 -43.64 18.66 -45 19 C-45.33 20.65 -45.66 22.3 -46 24 C-47.32 24 -48.64 24 -50 24 C-50.66 23.01 -51.32 22.02 -52 21 C-52.33 22.65 -52.66 24.3 -53 26 C-52.071875 25.95875 -51.14375 25.9175 -50.1875 25.875 C-47 26 -47 26 -44 28 C-44.75 32.75 -44.75 32.75 -47 35 C-48.83984375 35.484375 -48.83984375 35.484375 -50.9375 35.75 C-51.62714844 35.84796875 -52.31679688 35.9459375 -53.02734375 36.046875 C-55 36 -55 36 -58 34 C-59.1875 31.875 -59.1875 31.875 -60 30 C-61.40432936 31.17718985 -61.40432936 31.17718985 -61.125 34.5 C-61.07565563 39.03968249 -60.58312741 43.50158857 -60 48 C-61.485 48.495 -61.485 48.495 -63 49 C-64.33929505 47.71451591 -65.67128643 46.42141845 -67 45.125 C-67.7425 44.40570313 -68.485 43.68640625 -69.25 42.9453125 C-71 41 -71 41 -71 39 C-71.804375 38.690625 -72.60875 38.38125 -73.4375 38.0625 C-76 37 -76 37 -77 36 C-76.98831553 34.20643446 -76.89079285 32.41306914 -76.75 30.625 C-76.68296875 29.64789063 -76.6159375 28.67078125 -76.546875 27.6640625 C-75.93762241 24.69613205 -75.43243027 23.74865955 -73 22 C-71.1328125 21.3046875 -71.1328125 21.3046875 -69.125 20.875 C-68.13886719 20.65457031 -68.13886719 20.65457031 -67.1328125 20.4296875 C-65 20 -65 20 -62.41796875 19.7578125 C-59.81734107 19.21409254 -59.81734107 19.21409254 -58.48046875 16.8125 C-58.05378906 15.884375 -57.62710938 14.95625 -57.1875 14 C-52.15300036 4.12315719 -44.91619915 -3.96549525 -34.140625 -7.6328125 C-21.17747493 -9.85641853 -11.02405728 -6.78556594 0 0 Z " fill="#171716" transform="translate(83,8)"/>
<path d="M0 0 C2.375 1.3125 2.375 1.3125 4 3 C4 3.99 4 4.98 4 6 C4.66 5.67 5.32 5.34 6 5 C11.30075188 4.54887218 11.30075188 4.54887218 13.9375 6.25 C15 8 15 8 14.8125 10.0625 C14 12 14 12 12 14 C10.125 14.265625 10.125 14.265625 8 14.25 C7.29875 14.25515625 6.5975 14.2603125 5.875 14.265625 C4 14 4 14 2 12 C1.375 9.375 1.375 9.375 1 7 C1.01571045 7.75619629 1.0314209 8.51239258 1.04760742 9.29150391 C1.11018047 12.73592576 1.14906205 16.18022774 1.1875 19.625 C1.21263672 20.81480469 1.23777344 22.00460938 1.26367188 23.23046875 C1.32539083 30.59559711 0.97432426 35.43081089 -3.875 41.25 C-7.25827129 44.03622341 -9.96882428 44.88326313 -14.3125 45.375 C-18.91539124 44.90690937 -22.27202838 43.75935017 -26 41 C-27.75870047 38.52831286 -28.8599427 36.71520894 -30 34 C-30.29777344 33.33355469 -30.59554687 32.66710938 -30.90234375 31.98046875 C-32.64165055 27.7884989 -33.13024621 24.59117885 -33 20 C-32.11699219 19.89042969 -31.23398437 19.78085937 -30.32421875 19.66796875 C-17.9031294 18.82037865 -17.9031294 18.82037865 -7 14 C-7.7425 13.4740625 -7.7425 13.4740625 -8.5 12.9375 C-10.82091376 9.93965306 -10.45113866 7.67355767 -10 4 C-7.24846472 -0.12730291 -4.82246105 -0.70327557 0 0 Z " fill="#0C0A0B" transform="translate(74,14)"/>
<path d="M0 0 C5.57349225 3.59103323 10.0111437 7.72441586 14 13 C10.33333333 13 6.66666667 13 3 13 C2.71125 12.360625 2.4225 11.72125 2.125 11.0625 C1.17176549 8.84793921 1.17176549 8.84793921 -1 8 C-5.09442723 7.55987114 -5.09442723 7.55987114 -8.6796875 9.22265625 C-10.38731969 11.52139189 -10.31055754 12.85717668 -10.1875 15.6875 C-10.16042969 16.49574219 -10.13335937 17.30398437 -10.10546875 18.13671875 C-10.05326172 19.05904297 -10.05326172 19.05904297 -10 20 C-9.01 20.33 -8.02 20.66 -7 21 C-9.63862205 23.63862205 -12.49100797 24.19979677 -16 25.125 C-16.66974854 25.30385742 -17.33949707 25.48271484 -18.02954102 25.66699219 C-23.40396861 27.01977871 -28.45775991 27.46946034 -34 27 C-34.495 28.485 -34.495 28.485 -35 30 C-35.33 29.34 -35.66 28.68 -36 28 C-36.99 28 -37.98 28 -39 28 C-41.33333333 28 -43.66666667 28 -46 28 C-45.67 25.36 -45.34 22.72 -45 20 C-44.01 20 -43.02 20 -42 20 C-42 21.65 -42 23.3 -42 25 C-40.68 25 -39.36 25 -38 25 C-38.04125 24.21625 -38.0825 23.4325 -38.125 22.625 C-38 20 -38 20 -36 18 C-33.875 18.375 -33.875 18.375 -32 19 C-31.67 20.32 -31.34 21.64 -31 23 C-29.68 23 -28.36 23 -27 23 C-28.24976756 19.34683329 -28.67098753 18.21934164 -32 16 C-35.15163124 15.59594471 -36.50028898 15.64726281 -39.125 17.5 C-39.74375 17.995 -40.3625 18.49 -41 19 C-41.99 19 -42.98 19 -44 19 C-42.87140349 11.09982445 -41.47244122 6.67490356 -35.1875 1.61328125 C-24.47519354 -6.28704476 -11.79318911 -6.1964214 0 0 Z " fill="#F9F8E0" transform="translate(75,7)"/>
<path d="M0 0 C-0.64818933 5.9433975 -2.79914211 11.21676242 -4.9375 16.75 C-5.29779297 17.70777344 -5.65808594 18.66554687 -6.02929688 19.65234375 C-8.74550893 26.74550893 -8.74550893 26.74550893 -11 29 C-12.80004883 29.67016602 -12.80004883 29.67016602 -14.95703125 30.25390625 C-15.74013672 30.46853516 -16.52324219 30.68316406 -17.33007812 30.90429688 C-18.14927734 31.12150391 -18.96847656 31.33871094 -19.8125 31.5625 C-20.62009766 31.78357422 -21.42769531 32.00464844 -22.25976562 32.23242188 C-26.15296795 33.28782726 -30.02738364 34.28283396 -34 35 C-36.34905267 28.94748591 -38.33740363 22.84680556 -40.1875 16.625 C-40.46013672 15.72394531 -40.73277344 14.82289062 -41.01367188 13.89453125 C-41.27083984 13.03472656 -41.52800781 12.17492187 -41.79296875 11.2890625 C-42.0252417 10.51256348 -42.25751465 9.73606445 -42.49682617 8.93603516 C-43 7 -43 7 -43 5 C-38.64589055 4.27668766 -34.29005441 3.56515917 -29.93237305 2.86376953 C-28.45497785 2.62436563 -26.97806968 2.3819333 -25.50170898 2.13623047 C-16.97274662 0.71907497 -8.67983896 -0.41925963 0 0 Z " fill="#029A8E" transform="translate(92,113)"/>
<path d="M0 0 C9.44311473 -0.39963025 18.37391789 -0.68198372 26.0625 5.4375 C29.78664125 10.36297713 29.57624942 16.03278556 29 22 C27.86566847 27.64693506 26.57920899 33.84158202 24 39 C12.13468586 33.8960733 5.98602383 18.42679679 0.84765625 7.47265625 C-0.05884671 4.82834117 -0.16381491 2.77492537 0 0 Z " fill="#FC7D2E" transform="translate(142,22)"/>
<path d="M0 0 C0.33 0.99 0.66 1.98 1 3 C4.41099168 3 7.63088314 2.50854594 11 2 C12.87321073 5.90783594 14.72018825 9.82751407 16.5625 13.75 C17.36204102 15.41675781 17.36204102 15.41675781 18.17773438 17.1171875 C18.67724609 18.18710938 19.17675781 19.25703125 19.69140625 20.359375 C20.39052124 21.83615723 20.39052124 21.83615723 21.10375977 23.34277344 C22.07231126 26.21439273 21.97766491 27.21556291 21 30 C21 30.99 21 31.98 21 33 C19.75823305 33.70226141 18.50614401 34.38629109 17.25 35.0625 C16.55390625 35.44535156 15.8578125 35.82820313 15.140625 36.22265625 C12.53581662 37.16856294 11.51920018 37.13262427 9 36 C3.89031875 30.74432785 0.64798386 23.70923268 -2.5625 17.1875 C-2.93342773 16.45853516 -3.30435547 15.72957031 -3.68652344 14.97851562 C-6.16760486 9.73665848 -6.16760486 9.73665848 -5.34765625 6.1328125 C-3.82601873 3.72465572 -2.11362106 1.90225895 0 0 Z " fill="#181819" transform="translate(20,108)"/>
<path d="M0 0 C0.33 0 0.66 0 1 0 C1 1.98 1 3.96 1 6 C1.74636719 6.20238281 2.49273438 6.40476562 3.26171875 6.61328125 C6.92354352 8.46770036 7.85777864 10.6113887 9.8125 14.1875 C15.4368693 23.85222713 20.73034911 28.18073486 31.55859375 31.17578125 C34 32 34 32 35 34 C28.07186553 36.5779105 19.51442418 37.9646774 12.55859375 34.9375 C4.30229724 29.17219238 0.73801439 20.66171776 -1 11 C-1.63137755 3.2627551 -1.63137755 3.2627551 0 0 Z " fill="#D1C39C" transform="translate(24,36)"/>
<path d="M0 0 C0.99 0.495 0.99 0.495 2 1 C3.11374744 16.65433902 3.11374744 16.65433902 -2.12109375 23.15234375 C-5.44182106 26.41784067 -8.92753232 28.75684402 -13 31 C-14.00933594 31.56460938 -15.01867187 32.12921875 -16.05859375 32.7109375 C-29.50819927 39.83223152 -45.50515502 46.58199117 -61 45 C-65.74264717 43.50191342 -69.47116864 41.42545488 -72 37 C-71.67 36.34 -71.34 35.68 -71 35 C-69.824375 35.9590625 -69.824375 35.9590625 -68.625 36.9375 C-62.89753576 41.43765048 -55.97238743 40.80652931 -49 40 C-37.19934834 37.69056459 -26.15934676 33.41565684 -16 27 C-15.21109375 26.52949219 -14.4221875 26.05898438 -13.609375 25.57421875 C-6.53683141 20.92467621 -3.54755334 14.08899005 -1.75 6 C-1.62109375 5.278125 -1.4921875 4.55625 -1.359375 3.8125 C-1 2 -1 2 0 0 Z " fill="#0BEADB" transform="translate(102,34)"/>
<path d="M0 0 C0.66 0 1.32 0 2 0 C1.44894091 3.9492568 0.61064629 7.34920174 -1 11 C-2.65 11 -4.3 11 -6 11 C-6.226875 11.53625 -6.45375 12.0725 -6.6875 12.625 C-10.04359672 18.69793693 -12.31875737 21.08399659 -19 23.1875 C-21.32620432 23.81855883 -23.66002993 24.42207106 -26 25 C-27.16402344 25.30035156 -28.32804687 25.60070312 -29.52734375 25.91015625 C-34.81816061 27.21316384 -39.5272855 28.16312115 -45 28 C-44.68347868 21.76780427 -44.36237663 17.34923554 -41 12 C-41.21849209 8.76443801 -41.21849209 8.76443801 -42 6 C-40.68 6 -39.36 6 -38 6 C-36.63779528 11.3249821 -36.63779528 11.3249821 -38.375 14.5625 C-38.91125 15.366875 -39.4475 16.17125 -40 17 C-40.70670728 19.69254991 -40.70670728 19.69254991 -41 22 C-40.51789062 21.57847656 -40.03578125 21.15695313 -39.5390625 20.72265625 C-38.90742187 20.17480469 -38.27578125 19.62695312 -37.625 19.0625 C-36.99851562 18.51722656 -36.37203125 17.97195312 -35.7265625 17.41015625 C-34 16 -34 16 -32 15 C-31.01 15.66 -30.02 16.32 -29 17 C-26.39052596 16.54157889 -24.02670128 15.99116571 -21.5 15.25 C-20.82324219 15.06695312 -20.14648438 14.88390625 -19.44921875 14.6953125 C-16.21657914 13.78991837 -13.81532555 12.8768837 -11 11 C-8 9 -8 9 -5.5 8.3125 C-1.77503541 6.35689359 -1.3728913 3.90190158 0 0 Z " fill="#22191A" transform="translate(85,133)"/>
<path d="M0 0 C1.22419163 3.93795909 0.48320272 6.16112237 -1 10 C1.91517292 8.92598892 3.77810176 8.22189824 6 6 C9.43446337 6.18733437 12.05083922 6.35702012 14.9375 8.3125 C16 10 16 10 16 14 C14.68 14 13.36 14 12 14 C11.34 12.68 10.68 11.36 10 10 C8.68 10.33 7.36 10.66 6 11 C5.67 12.65 5.34 14.3 5 16 C3.68 16 2.36 16 1 16 C0.34 15.01 -0.32 14.02 -1 13 C-1.33 14.65 -1.66 16.3 -2 18 C-1.071875 17.95875 -0.14375 17.9175 0.8125 17.875 C4 18 4 18 7 20 C6.25 24.75 6.25 24.75 4 27 C2.16015625 27.484375 2.16015625 27.484375 0.0625 27.75 C-0.62714844 27.84796875 -1.31679688 27.9459375 -2.02734375 28.046875 C-4 28 -4 28 -7 26 C-8.85863807 18.56544773 -7.32805822 12.26925811 -3.68359375 5.5859375 C-2.50401967 3.68383229 -1.29149584 1.82749213 0 0 Z " fill="#D2CBA1" transform="translate(32,16)"/>
<path d="M0 0 C2.375 1.3125 2.375 1.3125 4 3 C4 3.99 4 4.98 4 6 C4.66 5.67 5.32 5.34 6 5 C11.30075188 4.54887218 11.30075188 4.54887218 13.9375 6.25 C15 8 15 8 14.8125 10.0625 C14 12 14 12 12 14 C10.125 14.265625 10.125 14.265625 8 14.25 C7.29875 14.25515625 6.5975 14.2603125 5.875 14.265625 C4 14 4 14 2 12 C1.67 10.35 1.34 8.7 1 7 C1 10.63 1 14.26 1 18 C0.67 18 0.34 18 0 18 C0 16.35 0 14.7 0 13 C-1.98 13.66 -3.96 14.32 -6 15 C-9.09107447 12.58509807 -9.93483001 11.45618991 -10.5 7.5 C-10 4 -10 4 -8.375 1.5625 C-5.30182885 -0.45932313 -3.61752119 -0.52755517 0 0 Z " fill="#EEEBD8" transform="translate(74,14)"/>
<path d="M0 0 C0.33 0.66 0.66 1.32 1 2 C0.67 2.99 0.34 3.98 0 5 C-0.09679233 7.63616763 -0.13924509 10.23965907 -0.125 12.875 C-0.12886719 13.58269531 -0.13273437 14.29039063 -0.13671875 15.01953125 C-0.12966857 18.80548044 0.09092047 22.32039237 1 26 C-0.98 26.99 -0.98 26.99 -3 28 C-4.96540671 25.30305233 -6.9286786 22.60464783 -8.88671875 19.90234375 C-10.1274606 18.19833045 -11.37644027 16.50016601 -12.64453125 14.81640625 C-16 10.31988473 -16 10.31988473 -16 7 C-10.72 4.69 -5.44 2.38 0 0 Z " fill="#029C90" transform="translate(19,79)"/>
<path d="M0 0 C1.53668415 3.26361594 3.05154852 6.53690088 4.5625 9.8125 C5.21895508 11.2056543 5.21895508 11.2056543 5.88867188 12.62695312 C6.29794922 13.51962891 6.70722656 14.41230469 7.12890625 15.33203125 C7.51119385 16.15421143 7.89348145 16.9763916 8.28735352 17.82348633 C9 20 9 20 8 23 C6.35 20.36 4.7 17.72 3 15 C2.67 17.31 2.34 19.62 2 22 C0.68 22 -0.64 22 -2 22 C-3.484375 20.3203125 -3.484375 20.3203125 -4.75 18.125 C-5.17796875 17.40570313 -5.6059375 16.68640625 -6.046875 15.9453125 C-7 14 -7 14 -7 12 C-7.639375 11.79375 -8.27875 11.5875 -8.9375 11.375 C-11 10 -11 10 -11.75 6.875 C-11.8325 5.92625 -11.915 4.9775 -12 4 C-10.75539217 3.32332002 -9.50403104 2.65905281 -8.25 2 C-7.55390625 1.62875 -6.8578125 1.2575 -6.140625 0.875 C-4 0 -4 0 0 0 Z " fill="#505050" transform="translate(31,110)"/>
<path d="M0 0 C5.7037037 0.90740741 5.7037037 0.90740741 8 1.625 C10.81127313 2.15211371 13.22351473 1.56791744 16 1 C16.625 3.3125 16.625 3.3125 17 6 C16.01 7.485 16.01 7.485 15 9 C14.86133316 12.5663379 15.0049985 16.08604909 15.125 19.65234375 C15.00701701 22.81207583 14.6785209 24.38386782 13 27 C12.72027344 26.23816406 12.44054687 25.47632812 12.15234375 24.69140625 C9.22487591 17.15152926 5.76123894 10.76123894 0 5 C-0.04063832 3.33382885 -0.042721 1.66611905 0 0 Z " fill="#F8F7E4" transform="translate(86,8)"/>
<path d="M0 0 C0 0.99 0 1.98 0 3 C0.37125 2.484375 0.7425 1.96875 1.125 1.4375 C3 0 3 0 6.1875 0.3125 C7.115625 0.539375 8.04375 0.76625 9 1 C7.76141604 5.95433585 6.27241667 8.18645731 2 11 C-0.77052181 11.92350727 -2.56688758 12.16329585 -5.4375 12.1875 C-6.19933594 12.20167969 -6.96117187 12.21585938 -7.74609375 12.23046875 C-10.23347315 11.97612666 -11.84808106 11.24017196 -14 10 C-13.4550001 6.31323596 -12.20595757 4.95029925 -9.25 2.75 C-8.57453125 2.22921875 -7.8990625 1.7084375 -7.203125 1.171875 C-4.61343096 -0.20562183 -2.89185324 -0.22245025 0 0 Z " fill="#F20D27" transform="translate(64,45)"/>
<path d="M0 0 C0.33 0 0.66 0 1 0 C0.96519531 1.11117187 0.93039063 2.22234375 0.89453125 3.3671875 C0.6959706 12.51846741 0.8126079 20.6252158 5 29 C8.465 28.505 8.465 28.505 12 28 C13.83764022 31.91227239 15.67058813 35.82669811 17.49926758 39.74316406 C18.12168744 41.07449149 18.74537328 42.40522783 19.37036133 43.73535156 C20.26979748 45.65014166 21.1646214 47.56702904 22.05859375 49.484375 C22.59798584 50.63647461 23.13737793 51.78857422 23.69311523 52.97558594 C24.72121576 55.35483295 25.49814454 57.47173357 26 60 C24.02 60 22.04 60 20 60 C20.20810303 59.28287842 20.41620605 58.56575684 20.63061523 57.8269043 C21.08005611 54.38733004 20.4016705 52.87352396 18.91015625 49.76953125 C18.45576172 48.80208984 18.00136719 47.83464844 17.53320312 46.83789062 C17.04787109 45.83951172 16.56253906 44.84113281 16.0625 43.8125 C15.1128727 41.82044381 14.16610605 39.82702057 13.22265625 37.83203125 C12.79734619 36.95264893 12.37203613 36.0732666 11.93383789 35.16723633 C11 33 11 33 11 31 C10.07767578 31.34224609 10.07767578 31.34224609 9.13671875 31.69140625 C8.32847656 31.97886719 7.52023438 32.26632813 6.6875 32.5625 C5.48673828 32.99755859 5.48673828 32.99755859 4.26171875 33.44140625 C2 34 2 34 -1 33 C-0.79375 32.38125 -0.5875 31.7625 -0.375 31.125 C-0.25125 30.42375 -0.1275 29.7225 0 29 C-0.66 28.34 -1.32 27.68 -2 27 C-1.70630173 25.65737935 -1.3721042 24.32303717 -1 23 C-1.33 22.34 -1.66 21.68 -2 21 C-2.12488834 18.38315357 -2.18516963 15.80451082 -2.1875 13.1875 C-2.19974609 12.47529297 -2.21199219 11.76308594 -2.22460938 11.02929688 C-2.23607389 6.8982511 -1.84522492 3.71232998 0 0 Z " fill="#0F0507" transform="translate(20,79)"/>
<path d="M0 0 C2.0625 0.4375 2.0625 0.4375 4 1 C3.91621094 2.0621875 3.83242188 3.124375 3.74609375 4.21875 C2.95522449 14.63618815 2.95522449 14.63618815 4 25 C0.31033897 22.81974575 -1.66552635 21.50677825 -4.0625 17.875 C-6.18095372 14.73148803 -7.41676943 13.99534183 -11 13 C-10.67 11.35 -10.34 9.7 -10 8 C-9.071875 7.95875 -8.14375 7.9175 -7.1875 7.875 C-3.72155027 7.31688663 -3.72155027 7.31688663 -2.1875 4 C-1.795625 3.01 -1.40375 2.02 -1 1 C-0.67 0.67 -0.34 0.34 0 0 Z " fill="#F5F7E5" transform="translate(19,30)"/>
<path d="M0 0 C0.66 0.33 1.32 0.66 2 1 C2.10883596 3.37625177 2.18766696 5.74743976 2.25 8.125 C2.28351563 8.79015625 2.31703125 9.4553125 2.3515625 10.140625 C2.45638928 15.48679071 1.19826227 17.95810162 -2 22 C-2 21.01 -2 20.02 -2 19 C-2.556875 19.598125 -3.11375 20.19625 -3.6875 20.8125 C-6.01407001 23.01330947 -8.24911943 24.37851321 -11 26 C-11.79277344 26.53238281 -12.58554688 27.06476562 -13.40234375 27.61328125 C-28.73457605 37.88989303 -43.75096024 42.66494477 -62 42 C-62 41.67 -62 41.34 -62 41 C-61.29359375 40.99742188 -60.5871875 40.99484375 -59.859375 40.9921875 C-44.29377316 40.40554421 -29.13144485 35.29254538 -16 27 C-15.21109375 26.52949219 -14.4221875 26.05898438 -13.609375 25.57421875 C-6.53683141 20.92467621 -3.54755334 14.08899005 -1.75 6 C-1.62109375 5.278125 -1.4921875 4.55625 -1.359375 3.8125 C-1 2 -1 2 0 0 Z " fill="#7AE1DC" transform="translate(102,34)"/>
<path d="M0 0 C1.2065625 0.0309375 1.2065625 0.0309375 2.4375 0.0625 C2.4375 0.7225 2.4375 1.3825 2.4375 2.0625 C1.509375 2.43375 0.58125 2.805 -0.375 3.1875 C-3.79374962 4.79976828 -3.79374962 4.79976828 -5.0625 8.1875 C-5.5575 9.13625 -6.0525 10.085 -6.5625 11.0625 C-9.75 11.9375 -9.75 11.9375 -12.5625 12.0625 C-12.5625 13.3825 -12.5625 14.7025 -12.5625 16.0625 C-11.840625 16.248125 -11.11875 16.43375 -10.375 16.625 C-6.99569534 18.35220016 -5.81348432 20.20440194 -3.765625 23.30859375 C-2.26744023 25.49263584 -0.50166096 27.26698059 1.4375 29.0625 C0.4475 29.3925 -0.5425 29.7225 -1.5625 30.0625 C-2.90179505 28.77701591 -4.23378643 27.48391845 -5.5625 26.1875 C-6.305 25.46820313 -7.0475 24.74890625 -7.8125 24.0078125 C-9.5625 22.0625 -9.5625 22.0625 -9.5625 20.0625 C-10.366875 19.753125 -11.17125 19.44375 -12 19.125 C-14.5625 18.0625 -14.5625 18.0625 -15.5625 17.0625 C-15.55081553 15.26893446 -15.45329285 13.47556914 -15.3125 11.6875 C-15.21195313 10.22183594 -15.21195313 10.22183594 -15.109375 8.7265625 C-14.49912199 5.75375853 -14.00803162 4.80452253 -11.5625 3.0625 C-9.5546875 2.3671875 -9.5546875 2.3671875 -7.4375 1.9375 C-4.13091783 1.19085241 -3.09417873 0.07546777 0 0 Z " fill="#20201F" transform="translate(21.5625,26.9375)"/>
<path d="M0 0 C0.66 0 1.32 0 2 0 C3.66403076 2.53222073 5.09126228 5.1642721 6.5625 7.8125 C7.036875 8.534375 7.51125 9.25625 8 10 C8.66 10 9.32 10 10 10 C10.33 7.36 10.66 4.72 11 2 C14.83035639 5.69827513 17.66925654 9.21898777 20 14 C18.7636832 14.89422914 17.51028438 15.76487891 16.25 16.625 C15.55390625 17.11226562 14.8578125 17.59953125 14.140625 18.1015625 C12 19 12 19 10 18.58203125 C7.07318878 16.26687784 5.50878247 13.28367752 3.75 10.0625 C3.20472656 9.11213867 3.20472656 9.11213867 2.6484375 8.14257812 C1.02293213 5.23683451 0 3.38004412 0 0 Z " fill="#2D2F2E" transform="translate(22,122)"/>
<path d="M0 0 C0.66 0.33 1.32 0.66 2 1 C-1.76163909 6.73875974 -5.22979952 8.93646683 -11.89453125 10.44140625 C-12.83683594 10.62574219 -13.77914062 10.81007812 -14.75 11 C-16.18666016 11.32291016 -16.18666016 11.32291016 -17.65234375 11.65234375 C-24.66758005 13.16620998 -24.66758005 13.16620998 -27 12 C-22.96745665 6.00096947 -19.30504973 4.68376074 -12.375 3.1875 C-10.67443581 2.78533955 -8.9739132 2.38300323 -7.2734375 1.98046875 C-6.15074463 1.73139771 -6.15074463 1.73139771 -5.00537109 1.47729492 C-2.81321025 0.98661219 -2.81321025 0.98661219 0 0 Z " fill="#DE0116" transform="translate(74,145)"/>
<path d="M0 0 C4.11606645 1.93697245 7.47838077 4.30262452 9.125 8.625 C9.125 11 9.125 11 7.125 14 C6.67360541 16.0492094 6.67360541 16.0492094 6.5 18.1875 C6.37625 19.445625 6.2525 20.70375 6.125 22 C4.6643715 19.35261084 4.125 18.10551666 4.125 15 C3.135 14.67 2.145 14.34 1.125 14 C2.445 13.34 3.765 12.68 5.125 12 C5.125 10.68 5.125 9.36 5.125 8 C4.55652344 8.10699219 3.98804687 8.21398438 3.40234375 8.32421875 C-2.37044754 9.22049519 -5.78863854 8.96704419 -10.875 6 C-11.205 5.01 -11.535 4.02 -11.875 3 C-10.9675 3.061875 -10.06 3.12375 -9.125 3.1875 C-5.19310941 2.96066016 -3.59484632 0 0 0 Z " fill="#181816" transform="translate(96.875,2)"/>
<path d="M0 0 C4.22089243 4.79646867 5.50848761 10.63252444 5.3125 16.953125 C4.48924661 22.34543471 1.88487385 26.52161086 -2.25 30 C-3.61125 30.99 -3.61125 30.99 -5 32 C-5.33 31.34 -5.66 30.68 -6 30 C-5.03566647 28.27085022 -4.06593074 26.54429977 -3.05859375 24.83984375 C1.10787994 17.59848174 0.99645496 8.94918763 -1 1 C-0.67 0.67 -0.34 0.34 0 0 Z " fill="#CFBF9B" transform="translate(92,25)"/>
<path d="M0 0 C2.125 0.375 2.125 0.375 4 1 C4.33 2.32 4.66 3.64 5 5 C5.99 5 6.98 5 8 5 C8.33 5.66 8.66 6.32 9 7 C9.99 7.66 10.98 8.32 12 9 C8.7 9 5.4 9 2 9 C1.67 9.99 1.34 10.98 1 12 C0.67 11.34 0.34 10.68 0 10 C-0.99 10 -1.98 10 -3 10 C-5.33333333 10 -7.66666667 10 -10 10 C-9.67 7.36 -9.34 4.72 -9 2 C-8.01 2 -7.02 2 -6 2 C-6 3.65 -6 5.3 -6 7 C-4.68 7 -3.36 7 -2 7 C-2.04125 6.21625 -2.0825 5.4325 -2.125 4.625 C-2 2 -2 2 0 0 Z " fill="#EBE8D6" transform="translate(39,25)"/>
<path d="M0 0 C1.9375 1.25 1.9375 1.25 3 3 C2.72963853 5.97397616 2.14553974 6.85446026 0 9 C-1.875 9.265625 -1.875 9.265625 -4 9.25 C-4.70125 9.25515625 -5.4025 9.2603125 -6.125 9.265625 C-8 9 -8 9 -10 7 C-10 3 -10 3 -8.375 1.25 C-5.33324476 -0.35092381 -3.3942779 -0.43331207 0 0 Z " fill="#FB2444" transform="translate(86,19)"/>
<path d="M0 0 C0.33 0 0.66 0 1 0 C1 2.31 1 4.62 1 7 C1.85722656 6.7834375 2.71445313 6.566875 3.59765625 6.34375 C14.9543058 3.57820738 14.9543058 3.57820738 21 4 C21 4.33 21 4.66 21 5 C19.35 5.33 17.7 5.66 16 6 C16.33 6.66 16.66 7.32 17 8 C9.08 9.485 9.08 9.485 1 11 C1 11.99 1 12.98 1 14 C0.01 14.33 -0.98 14.66 -2 15 C-2.05429959 13.25034642 -2.09292823 11.50020213 -2.125 9.75 C-2.15980469 8.28820312 -2.15980469 8.28820312 -2.1953125 6.796875 C-1.99862781 3.9803502 -1.44568916 2.39050964 0 0 Z " fill="#332B2A" transform="translate(103,16)"/>
<path d="M0 0 C3.0625 0.25 3.0625 0.25 6.0625 2.25 C5.3125 7 5.3125 7 3.0625 9.25 C-0.4375 9.5 -0.4375 9.5 -3.9375 9.25 C-4.5975 8.59 -5.2575 7.93 -5.9375 7.25 C-5.49166871 2.79168705 -4.82926429 0.41100122 0 0 Z " fill="#FB2343" transform="translate(32.9375,33.75)"/>
<path d="M0 0 C0.66 0.33 1.32 0.66 2 1 C0.12944655 4.41100923 -2.06257123 7.36042108 -4.5 10.375 C-9.49679642 16.74986027 -11.48942592 23.16278626 -13 31 C-15.29013653 27.5647952 -15.17842973 26.014669 -15 22 C-14.34 22 -13.68 22 -13 22 C-12.95875 21.21625 -12.9175 20.4325 -12.875 19.625 C-10.94906318 11.64611889 -5.99162892 5.4209976 0 0 Z " fill="#272625" transform="translate(37,7)"/>
<path d="M0 0 C3.0109362 2.0072908 3.63016497 2.83884224 5 6 C5.79664063 5.7834375 6.59328125 5.566875 7.4140625 5.34375 C8.47367188 5.0653125 9.53328125 4.786875 10.625 4.5 C12.19121094 4.08234375 12.19121094 4.08234375 13.7890625 3.65625 C16.95687418 3.00881404 19.77741467 2.8838708 23 3 C19.70436235 5.19709177 16.93267223 6.00391882 13.125 7.0625 C11.91070312 7.40410156 10.69640625 7.74570313 9.4453125 8.09765625 C6.63633577 8.83334063 3.8540352 9.47368552 1 10 C1 9.34 1 8.68 1 8 C-1.16874252 8.50603992 -2.99967627 8.99983813 -5 10 C-3.33333333 6.66666667 -1.66666667 3.33333333 0 0 Z " fill="#0B0C0D" transform="translate(54,141)"/>
<path d="M0 0 C4.77896341 1.30335366 4.77896341 1.30335366 6.4375 3.9375 C6.4375 5.2575 6.4375 6.5775 6.4375 7.9375 C5.1175 7.9375 3.7975 7.9375 2.4375 7.9375 C1.7775 6.6175 1.1175 5.2975 0.4375 3.9375 C-0.8825 4.2675 -2.2025 4.5975 -3.5625 4.9375 C-3.8925 6.5875 -4.2225 8.2375 -4.5625 9.9375 C-5.5525 9.9375 -6.5425 9.9375 -7.5625 9.9375 C-7.88241247 6.41846286 -7.93419764 4.51734832 -6 1.5 C-3.5625 -0.0625 -3.5625 -0.0625 0 0 Z " fill="#111110" transform="translate(41.5625,22.0625)"/>
<path d="M0 0 C2.375 1.3125 2.375 1.3125 4 3 C4 3.99 4 4.98 4 6 C3.443125 5.855625 2.88625 5.71125 2.3125 5.5625 C-0.11384195 4.97230872 -2.54906345 4.476571 -5 4 C-5.144375 4.598125 -5.28875 5.19625 -5.4375 5.8125 C-5.8872439 7.56150404 -6.42892341 9.28677023 -7 11 C-7.99 11 -8.98 11 -10 11 C-10.48275862 4.72413793 -10.48275862 4.72413793 -8.375 1.5625 C-5.30182885 -0.45932313 -3.61752119 -0.52755517 0 0 Z " fill="#0D0D0C" transform="translate(74,14)"/>
<path d="M0 0 C4.93220121 4.55624395 8.34883177 9.76803724 11.98242188 15.38085938 C12.67368164 16.42016602 12.67368164 16.42016602 13.37890625 17.48046875 C13.7869751 18.10848389 14.19504395 18.73649902 14.61547852 19.38354492 C16.22085006 21.25784663 17.74633796 22.04262063 20 23 C18.35 23.66 16.7 24.32 15 25 C13.24946233 22.45870221 11.49955494 19.91697423 9.75 17.375 C9.25886719 16.66214844 8.76773437 15.94929688 8.26171875 15.21484375 C7.29239691 13.80609601 6.32555887 12.39563571 5.36132812 10.98339844 C4.50065675 9.72943605 3.63069149 8.48175818 2.74804688 7.24316406 C0 3.32465278 0 3.32465278 0 0 Z " fill="#313939" transform="translate(0,85)"/>
<path d="M0 0 C0.66 0.33 1.32 0.66 2 1 C-7.81588169 6.57865727 -16.7775544 8.36794904 -28 8 C-24.5205816 5.68038773 -21.40581811 5.21934665 -17.375 4.5625 C-12.65527353 3.74915681 -8.14965253 2.86911586 -3.625 1.25 C-2.42875 0.8375 -1.2325 0.425 0 0 Z " fill="#DCDCDB" transform="translate(71,29)"/>
<path d="M0 0 C0.66 0 1.32 0 2 0 C1.44894091 3.9492568 0.61064629 7.34920174 -1 11 C-2.65 11 -4.3 11 -6 11 C-6.268125 11.598125 -6.53625 12.19625 -6.8125 12.8125 C-7.98493467 14.97224808 -9.19369282 16.35790256 -11 18 C-10.125 13.125 -10.125 13.125 -9 12 C-9.66 11.34 -10.32 10.68 -11 10 C-9.741875 9.649375 -8.48375 9.29875 -7.1875 8.9375 C-4.65628409 8.0146142 -3.33240554 7.48723939 -1.80078125 5.2421875 C-0.87959475 3.11319905 -0.87959475 3.11319905 0 0 Z " fill="#292C2C" transform="translate(85,133)"/>
<path d="M0 0 C0.33 0.99 0.66 1.98 1 3 C-2.52496744 6.18620434 -6.42853192 7.16488827 -10.9375 8.25 C-11.64068359 8.435625 -12.34386719 8.62125 -13.06835938 8.8125 C-17.03602128 9.79418954 -20.06168025 10.20230505 -24 9 C-19.47406018 6.28443611 -14.21457383 5.629107 -9.11132812 4.58789062 C-8.37205078 4.42611328 -7.63277344 4.26433594 -6.87109375 4.09765625 C-5.86453735 3.88894897 -5.86453735 3.88894897 -4.83764648 3.67602539 C-2.64079337 2.86785663 -1.53100186 1.74194914 0 0 Z " fill="#2B2323" transform="translate(73,149)"/>
<path d="M0 0 C0.99 0 1.98 0 3 0 C4.53668415 3.26361594 6.05154852 6.53690088 7.5625 9.8125 C8.21895508 11.2056543 8.21895508 11.2056543 8.88867188 12.62695312 C9.29794922 13.51962891 9.70722656 14.41230469 10.12890625 15.33203125 C10.51119385 16.15421143 10.89348145 16.9763916 11.28735352 17.82348633 C12 20 12 20 11 23 C9.34703881 19.92043712 7.70389829 16.83573921 6.0625 13.75 C5.59392578 12.87730469 5.12535156 12.00460938 4.64257812 11.10546875 C4.19462891 10.26113281 3.74667969 9.41679688 3.28515625 8.546875 C2.87144775 7.77182617 2.45773926 6.99677734 2.03149414 6.19824219 C1.0607156 4.1293925 0.46441571 2.2309731 0 0 Z " fill="#6B6B69" transform="translate(28,110)"/>
<path d="M0 0 C0.59425781 0.42152344 1.18851563 0.84304687 1.80078125 1.27734375 C8.22575172 5.52401941 13.31671104 6.97078597 21 7 C20.67 7.66 20.34 8.32 20 9 C9.3346117 9.62128476 9.3346117 9.62128476 4.375 7.3125 C1.89670869 4.89942689 1.15477905 3.19418241 0 0 Z " fill="#23F4ED" transform="translate(30,69)"/>
<path d="M0 0 C2.41696872 -0.05411124 4.83271787 -0.09372278 7.25 -0.125 C7.93191406 -0.14175781 8.61382812 -0.15851562 9.31640625 -0.17578125 C13.0608235 -0.21213482 15.82352727 -0.07944349 19 2 C19 2.99 19 3.98 19 5 C16.58086872 4.74424607 14.16589461 4.47106619 11.75 4.1875 C11.06808594 4.11724609 10.38617188 4.04699219 9.68359375 3.97460938 C5.64145156 3.48405814 2.99453902 2.81702769 0 0 Z " fill="#2A2A29" transform="translate(51,0)"/>
<path d="M0 0 C0 0.33 0 0.66 0 1 C-1.65 1.33 -3.3 1.66 -5 2 C-4.67 2.66 -4.34 3.32 -4 4 C-7.96 4.66 -11.92 5.32 -16 6 C-16.33 4.68 -16.66 3.36 -17 2 C-11.23918159 0.7017874 -5.91260345 -0.25706972 0 0 Z " fill="#1E0E10" transform="translate(124,20)"/>
<path d="M0 0 C-1.58539507 3.17079015 -4.80411145 3.82692625 -7.9375 5.125 C-8.58396484 5.40214844 -9.23042969 5.67929688 -9.89648438 5.96484375 C-14.72371459 8 -14.72371459 8 -17 8 C-17.33 8.66 -17.66 9.32 -18 10 C-18.33 8.68 -18.66 7.36 -19 6 C-16.2120519 4.80303299 -13.42025583 3.61716986 -10.625 2.4375 C-9.8309375 2.09525391 -9.036875 1.75300781 -8.21875 1.40039062 C-7.45820313 1.08134766 -6.69765625 0.76230469 -5.9140625 0.43359375 C-4.8614624 -0.01415405 -4.8614624 -0.01415405 -3.78759766 -0.47094727 C-2 -1 -2 -1 0 0 Z " fill="#172121" transform="translate(20,78)"/>
<path d="M0 0 C0.99 0.33 1.98 0.66 3 1 C2.01 1.495 2.01 1.495 1 2 C1.99 2.66 2.98 3.32 4 4 C4 4.66 4 5.32 4 6 C2.35 6.33 0.7 6.66 -1 7 C-1.33 6.34 -1.66 5.68 -2 5 C-2.66 5 -3.32 5 -4 5 C-4.33 5.66 -4.66 6.32 -5 7 C-8.875 5.25 -8.875 5.25 -10 3 C-9.0925 3.061875 -8.185 3.12375 -7.25 3.1875 C-3.62353365 2.97828079 -2.74443106 2.17661774 0 0 Z " fill="#7D7C72" transform="translate(95,2)"/>
<path d="M0 0 C3.30185267 1.10061756 3.6305502 1.54579326 5.4375 4.3125 C7.39186185 7.190742 9.43577658 9.62571905 12 12 C11.01 12.33 10.02 12.66 9 13 C7.66070495 11.71451591 6.32871357 10.42141845 5 9.125 C4.2575 8.40570313 3.515 7.68640625 2.75 6.9453125 C1 5 1 5 1 3 C0.34 2.67 -0.32 2.34 -1 2 C-0.67 1.34 -0.34 0.68 0 0 Z " fill="#2B2C2A" transform="translate(11,44)"/>
<path d="M0 0 C1.46726798 3.81489674 0.43336419 6.29011622 -1 10 C-0.01 9.67 0.98 9.34 2 9 C2 11.31 2 13.62 2 16 C1.01 15.01 0.02 14.02 -1 13 C-1.99 13.495 -1.99 13.495 -3 14 C-4.44608879 7.01057082 -4.44608879 7.01057082 -3.17578125 4.1328125 C-2.0625 2.5 -2.0625 2.5 0 0 Z " fill="#DCD7BC" transform="translate(32,16)"/>
<path d="M0 0 C-7.82316305 2.29370226 -14.84524526 3.433422 -23 3 C-23 2.67 -23 2.34 -23 2 C-22.11248047 1.92652344 -22.11248047 1.92652344 -21.20703125 1.8515625 C-16.76375952 1.43115506 -13.10966746 0.82651887 -9 -1 C-5.07659472 -2.14831374 -3.53427337 -1.94272955 0 0 Z " fill="#0CD1C4" transform="translate(64,76)"/>
<path d="M0 0 C0.66 0.33 1.32 0.66 2 1 C2 3.31 2 5.62 2 8 C0.824375 8.2165625 0.824375 8.2165625 -0.375 8.4375 C-2.96421018 8.87798925 -2.96421018 8.87798925 -5 10 C-3.33333333 6.66666667 -1.66666667 3.33333333 0 0 Z " fill="#210102" transform="translate(54,141)"/>
<path d="M0 0 C0.99 0.33 1.98 0.66 3 1 C3.88082622 3.71318044 4.57876229 6.28883517 5.1875 9.0625 C5.36474609 9.82111328 5.54199219 10.57972656 5.72460938 11.36132812 C6.16136967 13.23821697 6.58219156 15.1188016 7 17 C3.2055794 14.47038627 3.05739351 12.81181508 1.8125 8.5 C1.46832031 7.3346875 1.12414063 6.169375 0.76953125 4.96875 C0 2 0 2 0 0 Z " fill="#191010" transform="translate(49,125)"/>
<path d="M0 0 C4.00972202 3.67557852 6.45335415 7.18966896 9 12 C8.01 12 7.02 12 6 12 C4.39453125 10.13671875 4.39453125 10.13671875 2.8125 7.6875 C2.28269531 6.88699219 1.75289063 6.08648437 1.20703125 5.26171875 C0 3 0 3 0 0 Z " fill="#2F3435" transform="translate(0,85)"/>
<path d="M0 0 C0.99 0.33 1.98 0.66 3 1 C2.34 1 1.68 1 1 1 C-0.66489182 4.92438786 -1.87204037 8.89100419 -3 13 C-3.12375 12.360625 -3.2475 11.72125 -3.375 11.0625 C-3.58125 10.381875 -3.7875 9.70125 -4 9 C-4.66 8.67 -5.32 8.34 -6 8 C-2.25 1.125 -2.25 1.125 0 0 Z " fill="#261012" transform="translate(25,70)"/>
<path d="M0 0 C0.99 0 1.98 0 3 0 C3.103125 0.78375 3.20625 1.5675 3.3125 2.375 C3.77595022 5.33045181 3.77595022 5.33045181 7 7 C4.36 7.33 1.72 7.66 -1 8 C-0.67 5.36 -0.34 2.72 0 0 Z " fill="#FDFDED" transform="translate(30,27)"/>
<path d="M0 0 C1.2065625 0.0309375 1.2065625 0.0309375 2.4375 0.0625 C2.4375 0.7225 2.4375 1.3825 2.4375 2.0625 C-2.78520869 4.72714729 -5.6444503 5.39104177 -11.5625 4.0625 C-11.5625 3.7325 -11.5625 3.4025 -11.5625 3.0625 C-10.99660156 2.92972656 -10.43070313 2.79695313 -9.84765625 2.66015625 C-8.74744141 2.39525391 -8.74744141 2.39525391 -7.625 2.125 C-6.89410156 1.95097656 -6.16320312 1.77695312 -5.41015625 1.59765625 C-2.79322939 0.83968801 -2.95803984 0.07214731 0 0 Z " fill="#3C3B3A" transform="translate(21.5625,26.9375)"/>
<path d="M0 0 C2.0625 0.4375 2.0625 0.4375 4 1 C3.67 3.64 3.34 6.28 3 9 C1 6 1 6 0 4 C-0.99 4.495 -0.99 4.495 -2 5 C-1.125 1.125 -1.125 1.125 0 0 Z " fill="#EBE9D4" transform="translate(19,30)"/>
<path d="M0 0 C0 0.66 0 1.32 0 2 C-1.24420647 2.5345256 -2.49570936 3.05208611 -3.75 3.5625 C-4.44609375 3.85253906 -5.1421875 4.14257812 -5.859375 4.44140625 C-8.30012784 5.07831803 -9.6403655 4.80248831 -12 4 C-10.56570999 3.32645501 -9.12742943 2.66140299 -7.6875 2 C-6.88699219 1.62875 -6.08648437 1.2575 -5.26171875 0.875 C-3 0 -3 0 0 0 Z " fill="#0CF6E8" transform="translate(74,70)"/>
<path d="M0 0 C0 0.99 0 1.98 0 3 C-0.639375 3.103125 -1.27875 3.20625 -1.9375 3.3125 C-2.618125 3.539375 -3.29875 3.76625 -4 4 C-4.33 4.99 -4.66 5.98 -5 7 C-5.66 6.67 -6.32 6.34 -7 6 C-6.67 4.35 -6.34 2.7 -6 1 C-4.02 0.67 -2.04 0.34 0 0 Z " fill="#E9E9DE" transform="translate(15,37)"/>
<path d="M0 0 C0.66 0 1.32 0 2 0 C1.34 3.63 0.68 7.26 0 11 C-2.29013653 7.5647952 -2.17842973 6.014669 -2 2 C-1.34 2 -0.68 2 0 2 C0 1.34 0 0.68 0 0 Z " fill="#1F1D18" transform="translate(24,27)"/>
<path d="M0 0 C1.32 0.66 2.64 1.32 4 2 C3.6875 3.9375 3.6875 3.9375 3 6 C2.01 6.33 1.02 6.66 0 7 C-1.04449911 3.86650268 -0.93423645 3.01031744 0 0 Z " fill="#D9C9A4" transform="translate(91,44)"/>
<path d="M0 0 C2.1519437 3.22791555 2.20086443 4.28400809 2 8 C0.68 8 -0.64 8 -2 8 C-1.47731534 5.23723823 -0.89130413 2.6739124 0 0 Z " fill="#C6B993" transform="translate(27,24)"/>
<path d="M0 0 C1.35015859 4.05047576 0.62084998 6.7920168 0 11 C-1.4606285 8.35261084 -2 7.10551666 -2 4 C-2.99 3.67 -3.98 3.34 -5 3 C-3.35 2.01 -1.7 1.02 0 0 Z " fill="#0C0C0C" transform="translate(103,13)"/>
<path d="M0 0 C1 3 1 3 -0.4375 6.1875 C-1.2109375 7.5796875 -1.2109375 7.5796875 -2 9 C-3.24546405 6.50907189 -2.7767578 5.58919267 -2 3 C-3.65 3 -5.3 3 -7 3 C-7 2.67 -7 2.34 -7 2 C-4.69 1.34 -2.38 0.68 0 0 Z " fill="#09211E" transform="translate(94,110)"/>
<path d="M0 0 C0.6875 1.625 0.6875 1.625 1 4 C-0.4375 7.25 -0.4375 7.25 -2 10 C-2.66 8.68 -3.32 7.36 -4 6 C-2.68 4.02 -1.36 2.04 0 0 Z " fill="#D0C19A" transform="translate(32,16)"/>
<path d="M0 0 C0.94875 0.04125 1.8975 0.0825 2.875 0.125 C2.875 0.455 2.875 0.785 2.875 1.125 C1.225 1.125 -0.425 1.125 -2.125 1.125 C-2.41375 1.929375 -2.7025 2.73375 -3 3.5625 C-4.125 6.125 -4.125 6.125 -6.125 7.125 C-5.03177966 0.20127119 -5.03177966 0.20127119 0 0 Z " fill="#F7314E" transform="translate(33.125,33.875)"/>
<path d="M0 0 C0.33 0.66 0.66 1.32 1 2 C1.66 2.33 2.32 2.66 3 3 C2.34 4.65 1.68 6.3 1 8 C0.67 7.34 0.34 6.68 0 6 C-0.66 6 -1.32 6 -2 6 C-2 4.35 -2 2.7 -2 1 C-1.34 0.67 -0.68 0.34 0 0 Z " fill="#32413C" transform="translate(100,31)"/>
<path d="M0 0 C1.32 0 2.64 0 4 0 C3.67 1.32 3.34 2.64 3 4 C1.35 4 -0.3 4 -2 4 C-1.34 2.68 -0.68 1.36 0 0 Z " fill="#D0C3AF" transform="translate(11,32)"/>
<path d="M0 0 C0 0.33 0 0.66 0 1 C-1.65 1.33 -3.3 1.66 -5 2 C-4.67 2.66 -4.34 3.32 -4 4 C-4.99 4 -5.98 4 -7 4 C-7 3.34 -7 2.68 -7 2 C-8.98 2 -10.96 2 -13 2 C-13 1.67 -13 1.34 -13 1 C-8.60563789 0.14256349 -4.47427924 -0.08948558 0 0 Z " fill="#3B3234" transform="translate(124,20)"/>
<path d="M0 0 C1.9375 0.6875 1.9375 0.6875 4 2 C4.875 4.5 4.875 4.5 5 7 C4.34 7.66 3.68 8.32 3 9 C2.67 6.69 2.34 4.38 2 2 C1.34 2 0.68 2 0 2 C0 1.34 0 0.68 0 0 Z " fill="#333334" transform="translate(101,6)"/>
<path d="M0 0 C0.33 0.99 0.66 1.98 1 3 C-0.6875 4.5625 -0.6875 4.5625 -3 6 C-5.75 5.6875 -5.75 5.6875 -8 5 C-8 4.67 -8 4.34 -8 4 C-6.576875 3.566875 -6.576875 3.566875 -5.125 3.125 C-1.94788422 2.23174891 -1.94788422 2.23174891 0 0 Z " fill="#281314" transform="translate(73,149)"/>
<path d="M0 0 C0.66 0.33 1.32 0.66 2 1 C1 3 1 3 -2.0625 4.125 C-3.5165625 4.558125 -3.5165625 4.558125 -5 5 C-5.66 4.34 -6.32 3.68 -7 3 C-4.69631264 1.93347808 -2.35981813 0.93578995 0 0 Z " fill="#232727" transform="translate(18,77)"/>
<path d="M0 0 C0.33 0.66 0.66 1.32 1 2 C2.32 2.33 3.64 2.66 5 3 C2.03 3.66 -0.94 4.32 -4 5 C-2.68 3.35 -1.36 1.7 0 0 Z " fill="#EF0119" transform="translate(51,153)"/>
<path d="M0 0 C3.465 1.485 3.465 1.485 7 3 C5.625 4.5 5.625 4.5 4 6 C3.34 6 2.68 6 2 6 C0 3 0 3 0 0 Z " fill="#1D2222" transform="translate(13,104)"/>
<path d="M0 0 C1.67542976 0.28604898 3.34385343 0.61781233 5 1 C4.67 2.65 4.34 4.3 4 6 C3.67 4.68 3.34 3.36 3 2 C1.68 1.67 0.36 1.34 -1 1 C-0.67 0.67 -0.34 0.34 0 0 Z " fill="#E5E5DA" transform="translate(98,9)"/>
</svg>
