<?xml version="1.0" encoding="UTF-8"?>
<!DOCTYPE svg PUBLIC "-//W3C//DTD SVG 1.1//EN" "http://www.w3.org/Graphics/SVG/1.1/DTD/svg11.dtd">
<svg xmlns="http://www.w3.org/2000/svg" version="1.1" width="200px" height="200px" style="shape-rendering:geometricPrecision; text-rendering:geometricPrecision; image-rendering:optimizeQuality; fill-rule:evenodd; clip-rule:evenodd" xmlns:xlink="http://www.w3.org/1999/xlink">
<g><path style="opacity:0.998" fill="#0abdf7" d="M 174.5,18.5 C 124.451,19.0142 74.4507,20.8475 24.5,24C 23.6667,24.8333 22.8333,25.6667 22,26.5C 23.7785,70.1349 24.9451,113.802 25.5,157.5C 22.5,157.5 19.5,157.5 16.5,157.5C 10.5101,157.696 4.84339,156.696 -0.5,154.5C -0.5,147.5 -0.5,140.5 -0.5,133.5C 3.95999,91.3812 7.79332,49.0479 11,6.5C 11.2927,4.07514 12.4593,2.24181 14.5,1C 64.5301,4.66926 114.53,9.0026 164.5,14C 167.317,16.7005 170.65,18.2005 174.5,18.5 Z"/></g>
<g><path style="opacity:1" fill="#fdfdfd" d="M 174.5,18.5 C 175.833,19.1667 176.833,20.1667 177.5,21.5C 178.707,64.0015 180.04,106.502 181.5,149C 181.333,156.5 181.167,164 181,171.5C 180.5,172 180,172.5 179.5,173C 129.171,175.133 78.8381,176.8 28.5,178C 27.8742,177.25 27.3742,176.416 27,175.5C 26.7908,169.419 26.2908,163.419 25.5,157.5C 24.9451,113.802 23.7785,70.1349 22,26.5C 22.8333,25.6667 23.6667,24.8333 24.5,24C 74.4507,20.8475 124.451,19.0142 174.5,18.5 Z"/></g>
<g><path style="opacity:0.004" fill="#fefffe" d="M 185.5,21.5 C 186.833,22.1667 186.833,22.1667 185.5,21.5 Z"/></g>
<g><path style="opacity:0.004" fill="#fefffe" d="M 185.5,23.5 C 186.833,24.1667 186.833,24.1667 185.5,23.5 Z"/></g>
<g><path style="opacity:0.76" fill="#070808" d="M 177.5,21.5 C 181.677,23.0775 183.677,25.9109 183.5,30C 188.866,30.3227 194.199,30.8227 199.5,31.5C 199.5,56.1667 199.5,80.8333 199.5,105.5C 198.27,131.338 197.104,157.338 196,183.5C 194.833,184.667 193.667,185.833 192.5,187C 186.985,189.833 181.151,192 175,193.5C 173.333,193.167 171.667,192.833 170,192.5C 164.733,193.145 159.567,193.812 154.5,194.5C 151.424,193.659 148.424,193.326 145.5,193.5C 142.784,195.525 140.284,195.525 138,193.5C 135.932,194.394 133.765,195.06 131.5,195.5C 128.767,195.834 126.267,195.501 124,194.5C 118.667,195.167 113.333,195.833 108,196.5C 103.3,195.975 98.6329,195.641 94,195.5C 90.6667,196.167 87.3333,196.833 84,197.5C 80.4988,196.896 76.9988,196.563 73.5,196.5C 71.5406,196.875 69.7073,197.541 68,198.5C 67.6667,197.833 67.3333,197.167 67,196.5C 57.9183,197.305 49.085,197.972 40.5,198.5C 37.8507,197.792 35.3507,197.792 33,198.5C 30.2259,197.464 27.3926,196.631 24.5,196C 22.835,194.342 21.1683,192.675 19.5,191C 18.2671,186.662 17.2671,181.996 16.5,177C 16.8361,170.501 16.8361,164.001 16.5,157.5C 19.5,157.5 22.5,157.5 25.5,157.5C 26.2908,163.419 26.7908,169.419 27,175.5C 27.3742,176.416 27.8742,177.25 28.5,178C 78.8381,176.8 129.171,175.133 179.5,173C 180,172.5 180.5,172 181,171.5C 181.167,164 181.333,156.5 181.5,149C 180.04,106.502 178.707,64.0015 177.5,21.5 Z"/></g>
<g><path style="opacity:1" fill="#020202" d="M 76.5,52.5 C 77.9778,52.238 79.3112,52.5713 80.5,53.5C 91.8647,67.0265 103.698,80.0265 116,92.5C 116.5,79.8377 116.667,67.1711 116.5,54.5C 128.167,54.5 139.833,54.5 151.5,54.5C 151.5,82.8333 151.5,111.167 151.5,139.5C 142.761,142.188 134.094,145.188 125.5,148.5C 113.237,133.647 100.737,118.981 88,104.5C 87.5001,118.496 87.3334,132.496 87.5,146.5C 75.8333,146.5 64.1667,146.5 52.5,146.5C 52.5,118.167 52.5,89.8333 52.5,61.5C 60.7295,58.8712 68.7295,55.8712 76.5,52.5 Z"/></g>
<g><path style="opacity:0.004" fill="#7e7f7e" d="M 185.5,191.5 C 186.833,192.167 186.833,192.167 185.5,191.5 Z"/></g>
<g><path style="opacity:0.004" fill="#fefffe" d="M 185.5,193.5 C 186.833,194.167 186.833,194.167 185.5,193.5 Z"/></g>
<g><path style="opacity:0.004" fill="#7e7f7e" d="M 20.5,195.5 C 19.7611,195.631 19.0944,195.464 18.5,195C 19.4368,194.308 20.1034,194.475 20.5,195.5 Z"/></g>
<g><path style="opacity:0.004" fill="#fefffe" d="M 154.5,194.5 C 155.833,195.167 155.833,195.167 154.5,194.5 Z"/></g>
<g><path style="opacity:0.004" fill="#7e7f7e" d="M 161.5,194.5 C 162.833,195.167 162.833,195.167 161.5,194.5 Z"/></g>
<g><path style="opacity:0.004" fill="#fefffe" d="M 165.5,194.5 C 166.833,195.167 166.833,195.167 165.5,194.5 Z"/></g>
<g><path style="opacity:0.004" fill="#bebfbe" d="M 20.5,195.5 C 21.1667,195.5 21.5,195.833 21.5,196.5C 21.1667,196.167 20.8333,195.833 20.5,195.5 Z"/></g>
<g><path style="opacity:0.004" fill="#7e7f7e" d="M 21.5,196.5 C 22.8333,197.167 22.8333,197.167 21.5,196.5 Z"/></g>
<g><path style="opacity:0.004" fill="#7e7f7e" d="M 40.5,198.5 C 41.1667,198.5 41.5,198.833 41.5,199.5C 41.1667,199.167 40.8333,198.833 40.5,198.5 Z"/></g>
</svg>
