<?xml version="1.0" encoding="UTF-8"?>
<svg id="a" data-name="symfony" xmlns="http://www.w3.org/2000/svg" viewBox="0 0 112.164009094238 112.166996002197">
  <defs>
    <style>
      .d {
        fill: #fff;
      }
    </style>
  </defs>
  <g id="b" data-name="fond">
    <rect x="-43.814994812012" y="-28.368999481201" width="202" height="223.667007446289"/>
  </g>
  <g id="c" data-name="compacte">
    <path class="d" d="M56.080001831055,0C25.107002258301,0,0,25.107997894287,0,56.078998565674c0,30.976997375488,25.107002258301,56.087997436523,56.080001831055,56.087997436523,30.976005554199,0,56.084007263184-25.111000061035,56.084007263184-56.087997436523C112.164009094238,25.109001159668,87.055000305176,0,56.080001831055,0ZM86.326011657715,32.459999084473c-2.59700012207.090000152588-4.389999389648-1.462001800537-4.471000671387-3.818000793457-.028999328613-.863998413086.194000244141-1.619998931885.786003112793-2.504001617432.579002380371-1.13399887085.703002929688-1.263999938965.688003540039-1.756999969482-.053001403809-1.485000610352-2.294998168945-1.541000366211-2.908996582031-1.512001037598-8.418998718262.27799987793-10.638000488281,11.639999389648-12.436996459961,20.878002166748l-.880996704102,4.872001647949c4.847999572754.708999633789,8.289001464844-.165000915527,10.208999633789-1.406997680664,2.703002929688-1.754997253418-.755996704102-3.557998657227-.319999694824-5.553001403809.442001342773-2.033996582031,2.291999816895-3.015998840332,3.763000488281-3.056999206543,2.057998657227-.051002502441,3.525993347168,2.083999633789,3.478996276855,4.250999450684-.072998046875,3.582000732422-4.824996948242,8.502998352051-14.329002380371,8.302001953125-1.157997131348-.027000427246-2.224998474121-.108001708984-3.217002868652-.227996826172l-1.792999267578,9.897003173828c-1.605003356934,7.496002197266-3.73999786377,17.736000061035-11.371002197266,26.671997070312-6.555000305176,7.791999816895-13.208999633789,9.003997802734-16.188003540039,9.10400390625-5.573997497559.188003540039-9.270004272461-2.782997131348-9.400001525879-6.75-.128997802734-3.839996337891,3.267997741699-5.935997009277,5.496002197266-6.011001586914,2.974998474121-.098999023438,5.032997131348,2.055999755859,5.111000061035,4.540000915527.075996398926,2.103996276855-1.021003723145,2.76000213623-1.748001098633,3.15599822998-.484001159668.389999389648-1.214996337891.787002563477-1.188003540039,1.652000427246.017997741699.372001647949.416000366211,1.223999023438,1.653999328613,1.185997009277,2.355003356934-.083000183105,3.919998168945-1.248001098633,5.013999938965-2.026000976562,5.430000305176-4.525001525879,7.519996643066-12.408996582031,10.255996704102-26.761001586914l.573997497559-3.481002807617c.93399810791-4.666999816895,1.96900177002-9.872001647949,3.546997070312-15.05899810791-3.828002929688-2.881996154785-6.121002197266-6.454002380371-11.271003723145-7.850997924805-3.527000427246-.958000183105-5.680000305176-.144996643066-7.19100189209,1.767997741699-1.791000366211,2.265998840332-1.196998596191,5.213996887207.532997131348,6.942001342773l2.859001159668,3.16300201416c3.505996704102,4.050003051758,5.421997070312,7.202003479004,4.700996398926,11.44100189209-1.144996643066,6.767997741699-9.207000732422,11.960998535156-18.742004394531,9.026000976562-8.137001037598-2.50700378418-9.65599822998-8.267997741699-8.680000305176-11.44100189209.861000061035-2.792999267578,3.080001831055-3.320999145508,5.251998901367-2.654998779297,2.323997497559.71900177002,3.234001159668,3.543998718262,2.569999694824,5.712997436523-.073997497559.232002258301-.193000793457.619003295898-.438003540039,1.139999389648-.269996643066.59700012207-.769996643066,1.122001647949-.984001159668,1.820999145508-.523002624512,1.703002929688,1.811996459961,2.914001464844,3.439002990723,3.41300201416,3.640998840332,1.11799621582,7.19100189209-.783996582031,8.092002868652-3.731002807617.837997436523-2.706001281738-.875-4.595001220703-1.583999633789-5.319000244141l-3.446998596191-3.69100189209c-1.575996398926-1.755996704102-5.046997070312-6.65299987793-3.35400390625-12.151000976562.652000427246-2.121002197266,2.027000427246-4.370002746582,4.019996643066-5.859001159668,4.210998535156-3.137001037598,8.787002563477-3.652000427246,13.146003723145-2.399002075195,5.640998840332,1.622001647949,8.349998474121,5.351997375488,11.862998962402,8.233001708984,1.967002868652-5.768997192383,4.69100189209-11.415000915527,8.791000366211-16.180000305176,3.703002929688-4.340000152588,8.676002502441-7.484001159668,14.373001098633-7.680000305176,5.691993713379-.187999725342,9.995002746582,2.393001556396,10.137001037598,6.477001190186.059020996094,1.7380027771-.937973022461,5.118003845215-4.409973144531,5.234001159668Z"/>
  </g>
</svg>
