<?xml version="1.0" encoding="utf-8"?>
<!-- Generator: Adobe Illustrator 19.0.0, SVG Export Plug-In . SVG Version: 6.00 Build 0)  -->
<svg version="1.1" id="图层_1" xmlns="http://www.w3.org/2000/svg" xmlns:xlink="http://www.w3.org/1999/xlink" x="0px" y="0px"
	 viewBox="0 0 224 300" style="enable-background:new 0 0 224 300;" xml:space="preserve">
<style type="text/css">
	.st0{fill:#6CAF3A;}
	.st1{fill:#FFFFFF;}
</style>
<g id="XMLID_618_">
	<path id="XMLID_622_" class="st0" d="M35.8,40C15.7,40,0,55.1,0,75.1V260h66.3c-8.1-15-17.8-35.7-9-49.6
		c6.8-15.3,56.8-40.2,56.8-40.2c51.2-28.5,53.9-55,52.1-66.4c-0.2-1,1.2-1.6,1.7-0.7c8.3,13.6,26.8,51.2,0.8,81.7
		c0,0-15.5,17.6-56.6,39.3c0,0-23.7,13.9-33.4,35.9H92c11.1-15,55.1-37.5,55.1-37.5c51.2-28.5,53.9-55.2,52.1-66.5
		c-0.2-1,1.2-1.7,1.7-0.8c8.3,13.6,26.8,51.7,0.8,82.2c0,0-8.2,7.7-28.3,22.7H190c19.5,0,34-16.9,34-36.4V40H35.8z M127.5,139.6
		c0,0-15.5,17-56.6,38.8c0,0-30.4,17.6-36.4,44.3c-0.3,1.5-2.3,1.9-3.2,0.6c-7.1-10.1-26.6-40.7-15.3-58.7
		c6.8-15.3,56.8-39.9,56.8-39.9c51.2-28.5,53.9-54.9,52.1-66.2c-0.2-1,1.2-1.6,1.7-0.7C135,71.5,153.5,109.1,127.5,139.6z"/>
	<path id="XMLID_621_" class="st1" d="M125,58.6c1.8,11.4-0.9,37.8-52.1,66.2c0,0-50,24.6-56.8,39.9c-11.3,18,8.1,48.6,15.3,58.7
		c0.9,1.3,2.8,0.9,3.2-0.6c6-26.8,36.4-44.3,36.4-44.3c41.1-21.8,56.6-38.8,56.6-38.8c26-30.5,7.5-68.1-0.8-81.7
		C126.2,57,124.8,57.5,125,58.6z"/>
	<path id="XMLID_620_" class="st1" d="M112,224.1c41.1-21.8,56.6-39.1,56.6-39.1c26-30.5,7.5-68.3-0.8-81.9
		c-0.5-0.9-1.9-0.4-1.7,0.6c1.8,11.4-0.9,37.7-52.1,66.2c0,0-50,25.1-56.8,40.4c-8.8,13.9,0.9,34.6,9,49.6h12.4
		C88.3,238,112,224.1,112,224.1z"/>
	<path id="XMLID_619_" class="st1" d="M201.6,237.3c26-30.5,7.5-68.4-0.8-82c-0.5-0.9-1.9-0.5-1.7,0.5c1.8,11.4-0.9,38.3-52.1,66.7
		c0,0-44,22.5-55.1,37.5h81.3C193.5,245,201.6,237.3,201.6,237.3z"/>
</g>
</svg>
