<?xml version="1.0" standalone="no"?>
<!DOCTYPE svg PUBLIC "-//W3C//DTD SVG 20010904//EN"
 "http://www.w3.org/TR/2001/REC-SVG-20010904/DTD/svg10.dtd">
<svg version="1.0" xmlns="http://www.w3.org/2000/svg"
 width="128.000000pt" height="128.000000pt" viewBox="0 0 128.000000 128.000000"
 preserveAspectRatio="xMidYMid meet">

<g transform="translate(0.000000,128.000000) scale(0.100000,-0.100000)"
fill="#000000" stroke="none">
<path d="M570 1209 c-234 -25 -437 -207 -490 -439 -56 -242 60 -508 273 -629
119 -67 287 -92 417 -62 325 76 519 419 416 736 -86 266 -334 424 -616 394z
m-48 -334 c16 -35 -4 -55 -53 -55 -50 0 -79 -27 -79 -74 0 -37 21 -65 48 -67
9 0 58 -1 107 0 50 0 108 -3 130 -7 36 -7 40 -10 40 -37 l0 -30 -150 0 c-168
0 -199 9 -235 68 -45 73 -17 162 63 202 67 33 114 33 129 0z m306 -9 c2 -16
-2 -32 -10 -37 -7 -5 -66 -9 -130 -9 l-118 0 -6 27 c-12 45 14 54 146 51 l115
-3 3 -29z m136 12 c17 -27 -5 -52 -47 -56 -45 -4 -65 23 -41 57 19 27 71 26
88 -1z m-60 -230 c30 -28 66 -95 66 -123 0 -40 -44 -99 -90 -122 -40 -21 -59
-23 -190 -23 -145 0 -170 5 -170 36 0 7 7 20 17 29 14 14 37 16 165 13 147 -3
150 -3 169 21 41 51 11 110 -62 120 -47 6 -62 28 -39 56 20 24 104 19 134 -7z
m-424 -207 c13 -25 13 -27 -6 -45 -10 -11 -34 -16 -70 -16 -63 0 -94 13 -94
38 0 32 22 42 92 42 56 0 69 -3 78 -19z"/>
</g>
</svg>
